<svg width="40" height="40" fill="none" xmlns="http://www.w3.org/2000/svg"><g clip-path="url(#clip0_208_479)"><g filter="url(#filter0_i_208_479)"><mask id="mask0_208_479" style="mask-type:alpha" maskUnits="userSpaceOnUse" x="0" y="0" width="40" height="40"><path d="M0 20c0 11.046 8.954 20 20 20s20-8.954 20-20S31.046 0 20 0 0 8.954 0 20z" fill="#F5F5F5"/></mask><g mask="url(#mask0_208_479)"><g filter="url(#filter1_f_208_479)"><mask id="mask1_208_479" style="mask-type:alpha" maskUnits="userSpaceOnUse" x="0" y="-13" width="37" height="68"><path d="M36.055 50.77V-9.666A3.234 3.234 0 0032.82-12.9H3.233A3.233 3.233 0 000-9.667v60.438a3.233 3.233 0 003.233 3.233h29.588a3.234 3.234 0 003.234-3.233z" fill="#fff"/></mask><g mask="url(#mask1_208_479)"><path d="M36.055 50.772V-9.666a3.234 3.234 0 00-3.234-3.233H3.233A3.233 3.233 0 000-9.666v60.438a3.233 3.233 0 003.233 3.233h29.588a3.234 3.234 0 003.234-3.233z" fill="#fff"/><g filter="url(#filter2_f_208_479)"><path d="M-24.533 35.956c0 13.1 10.95 23.72 24.459 23.72 13.508 0 24.459-10.62 24.459-23.72S13.435 12.237-.074 12.237c-13.508 0-24.459 10.62-24.459 23.72z" fill="#34E1EC"/></g><g filter="url(#filter3_f_208_479)"><path d="M-29.383 1.087c0 11.482 10.94 20.79 24.433 20.79 13.494 0 24.433-9.308 24.433-20.79 0-11.481-10.939-20.79-24.433-20.79s-24.433 9.309-24.433 20.79z" fill="#7CA1FF"/></g><g filter="url(#filter4_f_208_479)"><path d="M26.626 68.068c-11.142-2.186-9.39-12.382-6.71-23.186-32.382-29.096 7.366-50.456 18.508-48.27C49.565-1.202 79.112 22.576 76.433 33.38c-2.68 10.804-38.666 36.875-49.807 34.688z" fill="#680AC6"/></g><g filter="url(#filter5_f_208_479)"><path d="M11.17 7.228c0 17.587 14.702 31.845 32.839 31.845 18.136 0 32.839-14.258 32.839-31.845 0-17.588-14.703-31.846-32.84-31.846-18.136 0-32.838 14.258-32.838 31.846z" fill="#42E8FF"/></g></g></g><mask id="mask2_208_479" style="mask-type:alpha" maskUnits="userSpaceOnUse" x="0" y="-22" width="40" height="84"><path d="M40 58.438V-18.43a3.234 3.234 0 00-3.233-3.233H3.285A3.233 3.233 0 00.05-18.43v76.868a3.233 3.233 0 003.234 3.234h33.481A3.234 3.234 0 0040 58.438z" fill="#fff"/></mask><g mask="url(#mask2_208_479)"><path d="M40 58.438V-18.43a3.234 3.234 0 00-3.233-3.233H3.285A3.233 3.233 0 00.05-18.43v76.868a3.233 3.233 0 003.234 3.234h33.481A3.234 3.234 0 0040 58.438z" fill="#524FFF"/><g filter="url(#filter6_f_208_479)"><path d="M-32.505-4.243c0 14.302 12.12 25.895 27.072 25.895 14.951 0 27.072-11.594 27.072-25.895S9.519-30.138-5.433-30.138-32.505-18.544-32.505-4.243z" fill="#5730FF"/></g><g filter="url(#filter7_f_208_479)"><path d="M29.554 79.187c-12.345-2.723-10.403-15.423-7.434-28.88-35.88-36.241 8.162-62.847 20.506-60.124C54.971-7.094 87.71 22.523 84.74 35.98 81.771 49.438 41.9 81.91 29.554 79.187z" fill="#B815F1"/></g><g filter="url(#filter8_f_208_479)"><path d="M11.428 1.904c0 21.04 16.507 38.095 36.87 38.095 20.363 0 36.87-17.056 36.87-38.095 0-21.04-16.507-38.095-36.87-38.095-20.363 0-36.87 17.055-36.87 38.095z" fill="#7A15E0"/></g><g filter="url(#filter9_f_208_479)"><path d="M22.465 5.104c0 9.806 7.706 17.755 17.21 17.755 9.506 0 17.212-7.95 17.212-17.755 0-9.806-7.706-17.755-17.211-17.755-9.505 0-17.21 7.949-17.21 17.755z" fill="#6C2AF8"/></g><g filter="url(#filter10_f_208_479)"><path d="M21.265-4.56c0 11.98 8.908 21.691 19.897 21.691 10.99 0 19.898-9.711 19.898-21.69 0-11.98-8.909-21.692-19.898-21.692-10.989 0-19.897 9.712-19.897 21.691z" fill="#5BF5FF" fill-opacity=".5"/></g><g filter="url(#filter11_f_208_479)"><path d="M-17.43 44.19c0 11.98 8.91 21.692 19.898 21.692 10.989 0 19.897-9.712 19.897-21.692S13.457 22.5 2.468 22.5c-10.989 0-19.897 9.712-19.897 21.691z" fill="#5BF5FF" fill-opacity=".4"/></g><g opacity=".4" filter="url(#filter12_f_208_479)"><path opacity=".4" d="M10.546 2.408c-.992 2.71 5.299 7.504 14.051 10.706 8.752 3.203 16.652 3.602 17.643.891.992-2.71-5.299-7.504-14.051-10.706C19.436.096 11.537-.302 10.546 2.408z" fill="#fff"/></g><g filter="url(#filter13_f_208_479)"><path d="M31.384-.001H8.277a5.777 5.777 0 000 11.553h23.107a5.777 5.777 0 100-11.553z" fill="#EED1FF" fill-opacity=".4"/></g></g></g></g><g filter="url(#filter14_i_208_479)"><path d="M15.351 29.304c-.328.892.696 1.67 1.464 1.112l10.632-7.713a.963.963 0 00-.146-1.646l-5.436-2.63a.963.963 0 01-.484-1.2l2.018-5.49c.328-.892-.696-1.67-1.464-1.112l-10.631 7.713a.964.964 0 00.145 1.647l5.437 2.63a.964.964 0 01.483 1.199l-2.018 5.49z" fill="#fff"/><path d="M15.013 29.178c-.45 1.227.956 2.296 2.013 1.53l10.631-7.713c.81-.588.7-1.829-.2-2.264l-5.436-2.63a.602.602 0 01-.303-.75l2.018-5.49c.451-1.226-.956-2.295-2.012-1.529l-10.632 7.713c-.81.588-.7 1.829.2 2.264l5.437 2.63a.602.602 0 01.302.75l-2.018 5.49z" stroke="url(#paint0_linear_208_479)" stroke-opacity=".29" stroke-width=".36"/></g></g><defs><filter id="filter0_i_208_479" x="0" y="-2.5" width="41.25" height="42.5" filterUnits="userSpaceOnUse" color-interpolation-filters="sRGB"><feFlood flood-opacity="0" result="BackgroundImageFix"/><feBlend in="SourceGraphic" in2="BackgroundImageFix" result="shape"/><feColorMatrix in="SourceAlpha" values="0 0 0 0 0 0 0 0 0 0 0 0 0 0 0 0 0 0 127 0" result="hardAlpha"/><feOffset dx="1.25" dy="-2.5"/><feGaussianBlur stdDeviation="1.563"/><feComposite in2="hardAlpha" operator="arithmetic" k2="-1" k3="1"/><feColorMatrix values="0 0 0 0 0 0 0 0 0 0 0 0 0 0 0 0 0 0 0.2 0"/><feBlend in2="shape" result="effect1_innerShadow_208_479"/></filter><filter id="filter1_f_208_479" x="-5.982" y="-18.882" width="48.019" height="78.868" filterUnits="userSpaceOnUse" color-interpolation-filters="sRGB"><feFlood flood-opacity="0" result="BackgroundImageFix"/><feBlend in="SourceGraphic" in2="BackgroundImageFix" result="shape"/><feGaussianBlur stdDeviation="2.991" result="effect1_foregroundBlur_208_479"/></filter><filter id="filter2_f_208_479" x="-32.859" y="3.911" width="65.57" height="64.09" filterUnits="userSpaceOnUse" color-interpolation-filters="sRGB"><feFlood flood-opacity="0" result="BackgroundImageFix"/><feBlend in="SourceGraphic" in2="BackgroundImageFix" result="shape"/><feGaussianBlur stdDeviation="4.163" result="effect1_foregroundBlur_208_479"/></filter><filter id="filter3_f_208_479" x="-42.317" y="-32.636" width="74.734" height="67.447" filterUnits="userSpaceOnUse" color-interpolation-filters="sRGB"><feFlood flood-opacity="0" result="BackgroundImageFix"/><feBlend in="SourceGraphic" in2="BackgroundImageFix" result="shape"/><feGaussianBlur stdDeviation="6.467" result="effect1_foregroundBlur_208_479"/></filter><filter id="filter4_f_208_479" x="-.857" y="-11.868" width="85.787" height="88.392" filterUnits="userSpaceOnUse" color-interpolation-filters="sRGB"><feFlood flood-opacity="0" result="BackgroundImageFix"/><feBlend in="SourceGraphic" in2="BackgroundImageFix" result="shape"/><feGaussianBlur stdDeviation="4.163" result="effect1_foregroundBlur_208_479"/></filter><filter id="filter5_f_208_479" x="2.844" y="-32.944" width="82.33" height="80.344" filterUnits="userSpaceOnUse" color-interpolation-filters="sRGB"><feFlood flood-opacity="0" result="BackgroundImageFix"/><feBlend in="SourceGraphic" in2="BackgroundImageFix" result="shape"/><feGaussianBlur stdDeviation="4.163" result="effect1_foregroundBlur_208_479"/></filter><filter id="filter6_f_208_479" x="-45.439" y="-43.072" width="80.011" height="77.658" filterUnits="userSpaceOnUse" color-interpolation-filters="sRGB"><feFlood flood-opacity="0" result="BackgroundImageFix"/><feBlend in="SourceGraphic" in2="BackgroundImageFix" result="shape"/><feGaussianBlur stdDeviation="6.467" result="effect1_foregroundBlur_208_479"/></filter><filter id="filter7_f_208_479" x=".002" y="-18.335" width="93.254" height="106.01" filterUnits="userSpaceOnUse" color-interpolation-filters="sRGB"><feFlood flood-opacity="0" result="BackgroundImageFix"/><feBlend in="SourceGraphic" in2="BackgroundImageFix" result="shape"/><feGaussianBlur stdDeviation="4.163" result="effect1_foregroundBlur_208_479"/></filter><filter id="filter8_f_208_479" x="3.102" y="-44.518" width="90.394" height="92.843" filterUnits="userSpaceOnUse" color-interpolation-filters="sRGB"><feFlood flood-opacity="0" result="BackgroundImageFix"/><feBlend in="SourceGraphic" in2="BackgroundImageFix" result="shape"/><feGaussianBlur stdDeviation="4.163" result="effect1_foregroundBlur_208_479"/></filter><filter id="filter9_f_208_479" x="14.139" y="-20.978" width="51.074" height="52.162" filterUnits="userSpaceOnUse" color-interpolation-filters="sRGB"><feFlood flood-opacity="0" result="BackgroundImageFix"/><feBlend in="SourceGraphic" in2="BackgroundImageFix" result="shape"/><feGaussianBlur stdDeviation="4.163" result="effect1_foregroundBlur_208_479"/></filter><filter id="filter10_f_208_479" x="15.152" y="-32.364" width="52.021" height="55.609" filterUnits="userSpaceOnUse" color-interpolation-filters="sRGB"><feFlood flood-opacity="0" result="BackgroundImageFix"/><feBlend in="SourceGraphic" in2="BackgroundImageFix" result="shape"/><feGaussianBlur stdDeviation="3.057" result="effect1_foregroundBlur_208_479"/></filter><filter id="filter11_f_208_479" x="-23.543" y="16.386" width="52.021" height="55.609" filterUnits="userSpaceOnUse" color-interpolation-filters="sRGB"><feFlood flood-opacity="0" result="BackgroundImageFix"/><feBlend in="SourceGraphic" in2="BackgroundImageFix" result="shape"/><feGaussianBlur stdDeviation="3.057" result="effect1_foregroundBlur_208_479"/></filter><filter id="filter12_f_208_479" x="2.116" y="-7.717" width="48.553" height="31.847" filterUnits="userSpaceOnUse" color-interpolation-filters="sRGB"><feFlood flood-opacity="0" result="BackgroundImageFix"/><feBlend in="SourceGraphic" in2="BackgroundImageFix" result="shape"/><feGaussianBlur stdDeviation="4.163" result="effect1_foregroundBlur_208_479"/></filter><filter id="filter13_f_208_479" x="-6.165" y="-8.666" width="51.99" height="28.884" filterUnits="userSpaceOnUse" color-interpolation-filters="sRGB"><feFlood flood-opacity="0" result="BackgroundImageFix"/><feBlend in="SourceGraphic" in2="BackgroundImageFix" result="shape"/><feGaussianBlur stdDeviation="4.333" result="effect1_foregroundBlur_208_479"/></filter><filter id="filter14_i_208_479" x="10.366" y="9.894" width="18.018" height="23.754" filterUnits="userSpaceOnUse" color-interpolation-filters="sRGB"><feFlood flood-opacity="0" result="BackgroundImageFix"/><feBlend in="SourceGraphic" in2="BackgroundImageFix" result="shape"/><feColorMatrix in="SourceAlpha" values="0 0 0 0 0 0 0 0 0 0 0 0 0 0 0 0 0 0 127 0" result="hardAlpha"/><feOffset dy="2.5"/><feGaussianBlur stdDeviation="1.25"/><feComposite in2="hardAlpha" operator="arithmetic" k2="-1" k3="1"/><feColorMatrix values="0 0 0 0 0 0 0 0 0 0 0 0 0 0 0 0 0 0 0.25 0"/><feBlend in2="shape" result="effect1_innerShadow_208_479"/></filter><linearGradient id="paint0_linear_208_479" x1="26.64" y1="10.326" x2="14.279" y2="27.78" gradientUnits="userSpaceOnUse"><stop stop-color="#fff"/><stop offset=".598" stop-color="#fff" stop-opacity="0"/></linearGradient><clipPath id="clip0_208_479"><path fill="#fff" d="M0 0h40v40H0z"/></clipPath></defs></svg>