<svg width="30" height="27" fill="none" xmlns="http://www.w3.org/2000/svg"><g clip-path="url(#clip0_208_618)" fill-rule="evenodd" clip-rule="evenodd"><path d="M22.7 4.7c-1.1 0-1.9.9-1.9 1.9 0 .8.4 1.4 1.1 1.7-.5 1.7-1.6 3.8-2.7 5.2-1.2 1.5-2.7 2.2-4.3 2.2-1.6 0-3.1-.7-4.3-2.2-1.1-1.4-2.3-3.5-2.7-5.2C8.5 8 9 7.3 9 6.6c-.1-1.1-1-1.9-2-1.9-1.1 0-1.9.9-1.9 1.9 0 .9.7 1.7 1.5 1.9 0 2.2-1.1 6-3 7.1l1.2 4.3h20l1.2-4.3c-1.8-1.1-2.9-4.8-3-7.1.9-.2 1.5-.9 1.5-1.9.1-1.1-.8-1.9-1.8-1.9z" fill="url(#paint0_linear_208_618)"/><path d="M0 6.9c0-.2.1-.3.3-.4.5 0 1 .1 1.4.4.4.3.9.8 1 1.6L.7 9 0 6.9z" fill="url(#paint1_linear_208_618)"/><path d="M14.8 0c-1.5 0-2.7 1.2-2.7 2.7v.4h5.4v-.4c0-1.5-1.2-2.7-2.7-2.7z" fill="url(#paint2_linear_208_618)"/><path d="M29.6 6.9c0-.2-.1-.3-.3-.4-.5 0-1 .1-1.4.4-.4.3-.9.8-1 1.6l2 .5.7-2.1z" fill="url(#paint3_linear_208_618)"/><path d="M26.2 19.9v3.2c0 .2 0 .4-.2.6-1 1.6-5.6 2.9-11.2 2.9S4.6 25.3 3.6 23.7c-.1-.2-.2-.4-.2-.6v-3.2c1.2 4.3 21.7 4.3 22.8 0z" fill="url(#paint4_linear_208_618)"/><path d="M14.8.4c1.5 0 2.7 1.2 2.7 2.7 0 1.1-.7 2-1.6 2.4.7 3.4 2.2 7.7 5.5 8.8 2.8.9 5.4-1.5 6.2-3.6-.6-.6-.8-1.4-.6-2.2.3-1.2 1.5-1.9 2.7-1.6-1.4 4.3-2.6 8.9-3.4 13.3-.3 1.8-5.3 3.3-11.4 3.3-6.1 0-11-1.5-11.4-3.3-.8-4.4-2-9-3.4-13.3 1.2-.3 2.4.4 2.7 1.6.2.8-.1 1.6-.6 2.2.8 2.1 3.4 4.5 6.2 3.6 3.3-1 4.8-5.4 5.5-8.8-.9-.4-1.6-1.3-1.6-2.4-.1-1.5 1.1-2.7 2.5-2.7z" fill="url(#paint5_linear_208_618)"/><path d="M14.8.4c1.5 0 2.7 1.2 2.7 2.7 0 1.1-.7 2-1.6 2.4.7 3.4 2.2 7.7 5.5 8.8 2.8.9 5.4-1.5 6.2-3.6-.6-.6-.8-1.4-.6-2.2.3-1.2 1.5-1.9 2.7-1.6-1.4 4.3-2.6 8.9-3.4 13.3-.3 1.8-5.3 3.3-11.4 3.3-6.1 0-11-1.5-11.4-3.3-.8-4.4-2-9-3.4-13.3 1.2-.3 2.4.4 2.7 1.6.2.8-.1 1.6-.6 2.2.8 2.1 3.4 4.5 6.2 3.6 3.3-1 4.8-5.4 5.5-8.8-.9-.4-1.6-1.3-1.6-2.4-.1-1.5 1.1-2.7 2.5-2.7z" fill="url(#paint6_linear_208_618)" style="mix-blend-mode:overlay"/><path d="M21.4 14.3c2.8.9 5.4-1.5 6.2-3.6-.4 1.7-1.7 3.8-3.9 4.4-5.4 1.4-7.6-5.4-7.9-9.5.8 3.3 2.3 7.7 5.6 8.7z" fill="url(#paint7_linear_208_618)"/><path d="M8.3 14.3c-2.8.9-5.4-1.5-6.2-3.6.4 1.7 1.7 3.8 3.9 4.4 5.4 1.4 7.6-5.4 7.9-9.5-.9 3.3-2.4 7.7-5.6 8.7z" fill="url(#paint8_linear_208_618)"/><path opacity=".65" d="M25.3 21.3c-1.7 1.3-5.8 2.2-10.6 2.2s-8.9-.9-10.6-2.2c1.5 1.4 5.7 2.4 10.6 2.4 4.9 0 9.1-.9 10.6-2.4z" fill="url(#paint9_radial_208_618)"/><path d="M11.1 15.1l3.7-1.8 3.7 1.8-.5 6.3-3.2.9-3.2-.9-.5-6.3z" fill="#BE8954"/><path d="M11.6 15.4l3.2-1.6 3.2 1.6-.4 5.7-2.8.8-2.7-.8-.5-5.7z" fill="#E6E6E6"/><path d="M12.7 16l.4 4.3 1.7.5 1.8-.5.3-4.3-2.1-1-2.1 1z" fill="url(#paint10_radial_208_618)"/><path d="M12.1 21.1l1-.8-.4-4.3-1.1-.6.5 5.7z" fill="#F62A26"/><path d="M12.7 16l2.1-1v-1.2l-3.2 1.6 1.1.6z" fill="#FFB5A5"/><path d="M14.8 20.8l-1.7-.5-1 .8 2.7.8v-1.1zm2.8.3l-1-.8.3-4.3 1.1-.6-.4 5.7z" fill="#B40F11"/><path d="M16.9 16l-2.1-1v-1.2l3.2 1.6-1.1.6z" fill="#FB906C"/><path d="M14.8 20.8l1.8-.5 1 .8-2.8.8v-1.1z" fill="#A80706"/><path opacity=".65" d="M13.7 15.3c-.6.3-1.4.5-2.1.1l1.1.6 2.1-1v-1.2c0 .6-.5 1.2-1.1 1.5z" fill="#fff"/><path opacity=".45" d="M15.6 20.7c.8-.3 1.7.1 2 .4l-1-.8-1.8.5v.8c0-.4.2-.7.8-.9z" fill="#fff"/><path d="M11.6 15.4l3.2-1.6v-.5l-3.7 1.8.5.3z" fill="url(#paint11_linear_208_618)"/><path d="M12.1 21.1l-.5-5.7-.5-.3.5 6.3.5-.3z" fill="url(#paint12_linear_208_618)"/><path d="M14.8 21.9l-2.7-.8-.5.3 3.2.9v-.4z" fill="url(#paint13_linear_208_618)"/><path d="M18 15.4l-3.2-1.6v-.5l3.7 1.8-.5.3z" fill="url(#paint14_linear_208_618)"/><path d="M17.6 21.1l.4-5.7.5-.3-.5 6.3-.4-.3z" fill="url(#paint15_linear_208_618)"/><path d="M14.8 21.9l2.8-.8.4.3-3.2.9v-.4z" fill="url(#paint16_linear_208_618)"/><path opacity=".7" d="M11.4 15c1 0 2.6-.8 3.2-1.6L11.4 15z" fill="#FFFCE3"/><path d="M14.8.4c1.5 0 2.7 1.2 2.7 2.7 0 1.5-1.2 2.7-2.7 2.7-1.5 0-2.7-1.2-2.7-2.7.1-1.5 1.3-2.7 2.7-2.7z" fill="url(#paint17_radial_208_618)"/></g><defs><linearGradient id="paint0_linear_208_618" x1="14.823" y1="19.836" x2="14.823" y2="4.692" gradientUnits="userSpaceOnUse"><stop stop-color="#E86900"/><stop offset="1" stop-color="#FC8F00"/></linearGradient><linearGradient id="paint1_linear_208_618" x1="0" y1="7.764" x2="2.68" y2="7.764" gradientUnits="userSpaceOnUse"><stop stop-color="#ED8E00"/><stop offset="1" stop-color="#FFCB30"/></linearGradient><linearGradient id="paint2_linear_208_618" x1="14.823" y1="3.1" x2="14.823" y2="0" gradientUnits="userSpaceOnUse"><stop stop-color="#ED8E00"/><stop offset="1" stop-color="#FFCB30"/></linearGradient><linearGradient id="paint3_linear_208_618" x1="26.967" y1="7.764" x2="29.648" y2="7.764" gradientUnits="userSpaceOnUse"><stop stop-color="#ED8E00"/><stop offset="1" stop-color="#FFCB30"/></linearGradient><linearGradient id="paint4_linear_208_618" x1="3.442" y1="23.234" x2="26.207" y2="23.234" gradientUnits="userSpaceOnUse"><stop offset=".052" stop-color="#ED9500"/><stop offset=".403" stop-color="#FC0"/><stop offset=".926" stop-color="#B36600"/></linearGradient><linearGradient id="paint5_linear_208_618" x1="0" y1="11.996" x2="29.647" y2="11.996" gradientUnits="userSpaceOnUse"><stop offset=".052" stop-color="#ED9500"/><stop offset=".403" stop-color="#FC0"/><stop offset=".926" stop-color="#B36600"/></linearGradient><linearGradient id="paint6_linear_208_618" x1="6" y1="12" x2="19" y2="12" gradientUnits="userSpaceOnUse"><stop stop-color="#fff" stop-opacity="0"/><stop offset=".281" stop-color="#fff"/><stop offset=".926" stop-color="#fff" stop-opacity="0"/></linearGradient><linearGradient id="paint7_linear_208_618" x1="15.891" y1="10.381" x2="27.602" y2="10.381" gradientUnits="userSpaceOnUse"><stop stop-color="#ED8E00"/><stop offset="1" stop-color="#FFCB30"/></linearGradient><linearGradient id="paint8_linear_208_618" x1="2.045" y1="10.381" x2="13.756" y2="10.381" gradientUnits="userSpaceOnUse"><stop stop-color="#FFCB30"/><stop offset="1" stop-color="#ED8E00"/></linearGradient><linearGradient id="paint11_linear_208_618" x1="11.149" y1="14.348" x2="14.823" y2="14.348" gradientUnits="userSpaceOnUse"><stop stop-color="#F5D36C"/><stop offset="1" stop-color="#FFF5B0"/></linearGradient><linearGradient id="paint12_linear_208_618" x1="11.612" y1="21.436" x2="11.612" y2="15.134" gradientUnits="userSpaceOnUse"><stop stop-color="#ED8E00"/><stop offset="1" stop-color="#FFCB30"/></linearGradient><linearGradient id="paint13_linear_208_618" x1="11.649" y1="21.712" x2="14.823" y2="21.712" gradientUnits="userSpaceOnUse"><stop stop-color="#A34900"/><stop offset="1" stop-color="#F09C00"/></linearGradient><linearGradient id="paint14_linear_208_618" x1="14.823" y1="14.348" x2="18.497" y2="14.348" gradientUnits="userSpaceOnUse"><stop stop-color="#F09C00"/><stop offset="1" stop-color="#A34900"/></linearGradient><linearGradient id="paint15_linear_208_618" x1="18.034" y1="21.436" x2="18.034" y2="15.134" gradientUnits="userSpaceOnUse"><stop stop-color="#A34900"/><stop offset="1" stop-color="#F09C00"/></linearGradient><linearGradient id="paint16_linear_208_618" x1="14.823" y1="21.712" x2="17.997" y2="21.712" gradientUnits="userSpaceOnUse"><stop stop-color="#FFBF00"/><stop offset="1" stop-color="#DB6A00"/></linearGradient><radialGradient id="paint9_radial_208_618" cx="0" cy="0" r="1" gradientUnits="userSpaceOnUse" gradientTransform="translate(14.741 22.564) scale(16.9403)"><stop stop-color="#FFF0B0"/><stop offset="1"/></radialGradient><radialGradient id="paint10_radial_208_618" cx="0" cy="0" r="1" gradientUnits="userSpaceOnUse" gradientTransform="rotate(-2.792 320.275 -278.686) scale(5.55099)"><stop stop-color="#F17755"/><stop offset="1" stop-color="#EF1312"/></radialGradient><radialGradient id="paint17_radial_208_618" cx="0" cy="0" r="1" gradientUnits="userSpaceOnUse" gradientTransform="translate(13.975 2.375) scale(3.6187)"><stop stop-color="#FCCD10"/><stop offset=".221" stop-color="#EDAB09"/><stop offset=".449" stop-color="#E08E02"/><stop offset=".58" stop-color="#DB8300"/><stop offset=".707" stop-color="#D67D00"/><stop offset=".878" stop-color="#C86C00"/><stop offset="1" stop-color="#BA5B00"/></radialGradient><clipPath id="clip0_208_618"><path fill="#fff" d="M0 0h29.6v26.6H0z"/></clipPath></defs></svg>