<svg width="27" height="28" fill="none" xmlns="http://www.w3.org/2000/svg"><path d="M17.183 2.398c-1.265-.516-3.838-1.36-5.464-1.688C7.745-.18 4.9 1.835 3.139 5.399L.43 12.666c-.767 2.11-.496 4.454.723 6.283l.406.562c3.612 4.408 3.612 4.408 9.618 6.658l5.012 1.172c3.07.703 6.232-.984 7.45-3.985l2.62-6.47c1.354-3.33.858-7.22-1.535-9.8l-.497-.468c-1.942-1.782-4.425-3.095-7.044-4.22z" fill="url(#paint0_linear_238_309)"/><path d="M7.654 17.637c-2.394 3.845-5.283 4.314-6.457 1.078C.023 15.48 1.016 9.713 3.409 5.822c2.393-3.845 5.193-4.126 6.367-.891 1.174 3.235.27 8.861-2.122 12.706z" fill="url(#paint1_linear_238_309)"/><path d="M5.984 6.101c-.316.797-.767 1.126-1.038.75-.271-.375-.271-1.312.045-2.063.271-.797.723-1.125.993-.797.317.376.317 1.313 0 2.11z" fill="url(#paint2_linear_238_309)"/><path d="M9.597 9.383c-.316.797-.768 1.125-1.039.75-.27-.375-.27-1.313.045-2.063.316-.797.768-1.126 1.039-.797.27.375.27 1.312-.045 2.11z" fill="url(#paint3_linear_238_309)"/><path d="M5.53 12.196c-.316.797-.767 1.125-1.038.75s-.271-1.313.045-2.063c.316-.797.768-1.125 1.039-.797.27.375.27 1.313-.046 2.11z" fill="url(#paint4_linear_238_309)"/><path d="M5.804 18.901c-.316.797-.813 1.125-1.084.704-.27-.422-.27-1.407.046-2.204.316-.797.812-1.125 1.083-.703.271.375.226 1.406-.045 2.203z" fill="url(#paint5_linear_238_309)"/><path d="M2.192 15.618c-.316.797-.813 1.125-1.084.703-.27-.422-.27-1.406.045-2.203.316-.797.813-1.126 1.084-.704.27.375.226 1.407-.045 2.204z" fill="url(#paint6_linear_238_309)"/><path d="M25.13 7.932c1.445 1.97-.768 2.532-5.012 1.313C15.783 7.979 10.68 5.26 8.784 3.056c-1.987-2.25.361-2.954 5.147-1.5 4.697 1.453 9.709 4.313 11.199 6.376z" fill="url(#paint7_linear_238_309)"/><path d="M18.086 5.68c.361.375 0 .516-.767.282-.813-.235-1.716-.75-2.078-1.126-.36-.375 0-.515.768-.281.813.234 1.716.703 2.077 1.125z" fill="url(#paint8_linear_238_309)"/><path d="M24.904 20.215c-1.716 4.83-6.773 7.783-11.244 6.517-4.47-1.266-6.683-6.189-4.967-11.018 1.716-4.83 6.773-7.783 11.244-6.517 4.47 1.266 6.683 6.142 4.967 11.018z" fill="url(#paint9_linear_238_309)"/><path d="M15.78 12.525c-.36.891-1.309 1.407-2.121 1.172-.813-.234-1.22-1.078-.858-1.969.36-.89 1.31-1.406 2.122-1.219.813.234 1.22 1.125.858 2.016z" fill="url(#paint10_linear_238_309)"/><path d="M20.612 23.73c-.361.843-1.265 1.359-2.032 1.171-.813-.187-1.174-1.031-.813-1.828.361-.844 1.264-1.36 2.077-1.172.723.187 1.084.984.768 1.828z" fill="url(#paint11_linear_238_309)"/><path d="M12.123 21.715c-.316.844-1.265 1.36-2.077 1.172-.813-.187-1.22-1.031-.904-1.875.317-.844 1.265-1.407 2.123-1.172.767.187 1.174 1.031.858 1.875z" fill="url(#paint12_linear_238_309)"/><path d="M24.316 14.729c-.361.844-1.264 1.36-2.077 1.172-.813-.188-1.174-1.079-.813-1.922.361-.844 1.265-1.407 2.077-1.173.813.235 1.174 1.079.813 1.923z" fill="url(#paint13_linear_238_309)"/><defs><linearGradient id="paint0_linear_238_309" x1="10.032" y1="24.708" x2="16.899" y2="5.683" gradientUnits="userSpaceOnUse"><stop stop-color="#AE1110"/><stop offset=".439" stop-color="#E60018"/><stop offset=".769" stop-color="#F56867"/><stop offset="1" stop-color="#EF814B"/></linearGradient><linearGradient id="paint1_linear_238_309" x1="3.011" y1="9.534" x2="7.512" y2="13.348" gradientUnits="userSpaceOnUse"><stop stop-color="#A60605"/><stop offset=".361" stop-color="#AC0A08"/><stop offset=".845" stop-color="#BD1412"/><stop offset="1" stop-color="#C41816"/></linearGradient><linearGradient id="paint2_linear_238_309" x1="4.548" y1="6.003" x2="6.52" y2="5.203" gradientUnits="userSpaceOnUse"><stop stop-color="#fff"/><stop offset=".108" stop-color="#FEF9F9"/><stop offset=".254" stop-color="#FAE9E8"/><stop offset=".42" stop-color="#F4CECC"/><stop offset=".602" stop-color="#EBA8A5"/><stop offset=".797" stop-color="#E07772"/><stop offset="1" stop-color="#D33D36"/></linearGradient><linearGradient id="paint3_linear_238_309" x1="8.16" y1="9.284" x2="10.132" y2="8.484" gradientUnits="userSpaceOnUse"><stop stop-color="#fff"/><stop offset=".108" stop-color="#FEF9F9"/><stop offset=".254" stop-color="#FAE9E8"/><stop offset=".42" stop-color="#F4CECC"/><stop offset=".602" stop-color="#EBA8A5"/><stop offset=".797" stop-color="#E07772"/><stop offset="1" stop-color="#D33D36"/></linearGradient><linearGradient id="paint4_linear_238_309" x1="4.093" y1="12.098" x2="6.066" y2="11.297" gradientUnits="userSpaceOnUse"><stop stop-color="#fff"/><stop offset=".108" stop-color="#FEF9F9"/><stop offset=".254" stop-color="#FAE9E8"/><stop offset=".42" stop-color="#F4CECC"/><stop offset=".602" stop-color="#EBA8A5"/><stop offset=".797" stop-color="#E07772"/><stop offset="1" stop-color="#D33D36"/></linearGradient><linearGradient id="paint5_linear_238_309" x1="4.319" y1="18.717" x2="6.331" y2="17.901" gradientUnits="userSpaceOnUse"><stop stop-color="#fff"/><stop offset=".108" stop-color="#FEF9F9"/><stop offset=".254" stop-color="#FAE9E8"/><stop offset=".42" stop-color="#F4CECC"/><stop offset=".602" stop-color="#EBA8A5"/><stop offset=".797" stop-color="#E07772"/><stop offset="1" stop-color="#D33D36"/></linearGradient><linearGradient id="paint6_linear_238_309" x1=".707" y1="15.434" x2="2.718" y2="14.618" gradientUnits="userSpaceOnUse"><stop stop-color="#fff"/><stop offset=".108" stop-color="#FEF9F9"/><stop offset=".254" stop-color="#FAE9E8"/><stop offset=".42" stop-color="#F4CECC"/><stop offset=".602" stop-color="#EBA8A5"/><stop offset=".797" stop-color="#E07772"/><stop offset="1" stop-color="#D33D36"/></linearGradient><linearGradient id="paint7_linear_238_309" x1="16.254" y1="6.659" x2="17.722" y2="3.625" gradientUnits="userSpaceOnUse"><stop stop-color="#FE533E"/><stop offset=".354" stop-color="#FD4D39"/><stop offset=".828" stop-color="#F93C2B"/><stop offset="1" stop-color="#F73425"/></linearGradient><linearGradient id="paint8_linear_238_309" x1="17.208" y1="6.602" x2="18.046" y2="5.64" gradientUnits="userSpaceOnUse"><stop stop-color="#D33D36"/><stop offset=".091" stop-color="#DD6863"/><stop offset=".191" stop-color="#E6908C"/><stop offset=".297" stop-color="#EEB2AF"/><stop offset=".409" stop-color="#F4CECC"/><stop offset=".527" stop-color="#F9E4E3"/><stop offset=".655" stop-color="#FCF3F3"/><stop offset=".8" stop-color="#FEFCFC"/><stop offset="1" stop-color="#fff"/></linearGradient><linearGradient id="paint9_linear_238_309" x1="20.617" y1="11.118" x2="12.094" y2="25.249" gradientUnits="userSpaceOnUse"><stop stop-color="#F8302B"/><stop offset=".347" stop-color="#F62A26"/><stop offset=".811" stop-color="#F11917"/><stop offset="1" stop-color="#EE100F"/></linearGradient><linearGradient id="paint10_linear_238_309" x1="14.06" y1="10.545" x2="14.528" y2="13.694" gradientUnits="userSpaceOnUse"><stop stop-color="#D33D36"/><stop offset=".11" stop-color="#D8534C"/><stop offset=".341" stop-color="#E58A86"/><stop offset=".67" stop-color="#F9E3E2"/><stop offset=".768" stop-color="#fff"/><stop offset="1" stop-color="#fff"/></linearGradient><linearGradient id="paint11_linear_238_309" x1="18.951" y1="21.907" x2="19.392" y2="24.88" gradientUnits="userSpaceOnUse"><stop stop-color="#D33D36"/><stop offset=".11" stop-color="#D8534C"/><stop offset=".341" stop-color="#E58A86"/><stop offset=".67" stop-color="#F9E3E2"/><stop offset=".768" stop-color="#fff"/><stop offset="1" stop-color="#fff"/></linearGradient><linearGradient id="paint12_linear_238_309" x1="10.404" y1="19.842" x2="10.857" y2="22.89" gradientUnits="userSpaceOnUse"><stop stop-color="#D33D36"/><stop offset=".11" stop-color="#D8534C"/><stop offset=".341" stop-color="#E58A86"/><stop offset=".67" stop-color="#F9E3E2"/><stop offset=".768" stop-color="#fff"/><stop offset="1" stop-color="#fff"/></linearGradient><linearGradient id="paint13_linear_238_309" x1="22.669" y1="12.828" x2="23.125" y2="15.897" gradientUnits="userSpaceOnUse"><stop stop-color="#D33D36"/><stop offset=".11" stop-color="#D8534C"/><stop offset=".341" stop-color="#E58A86"/><stop offset=".67" stop-color="#F9E3E2"/><stop offset=".768" stop-color="#fff"/><stop offset="1" stop-color="#fff"/></linearGradient></defs></svg>