<svg width="29" height="26" fill="none" xmlns="http://www.w3.org/2000/svg"><path d="M18.754 21.63c.599-.16.955-.776.794-1.375L14.622 1.887a1.124 1.124 0 00-1.376-.794L1.086 4.354A1.123 1.123 0 00.29 5.73L5.217 24.1c.161.599.777.954 1.376.793l12.16-3.261z" fill="url(#paint0_linear_238_307)"/><path d="M5.794 23.943a.527.527 0 00.644.372L18.6 21.053a.522.522 0 00.32-.245.522.522 0 00.052-.4L14.045 2.042a.526.526 0 00-.645-.372L1.24 4.929a.527.527 0 00-.373.645l4.927 18.369z" fill="url(#paint1_linear_238_307)"/><path d="M16.124 13.435c-.799-2.962-5.031-3.443-7.065-5.85l-.03-.033-.01.043c-.548 3.106-3.964 5.648-3.166 8.609.67 2.477 4.202 2.55 5.24.047.007-.114.175.659.184 1.12-.04 1.374-.918 3.598-1.434 4.353.712-1.046 4.467-2.06 5.608-1.513-.824-.395-2.619-1.827-3.429-3.043a6.486 6.486 0 01-.473-1.07c2.166 1.826 5.256-.136 4.575-2.662z" fill="url(#paint2_radial_238_307)"/><path d="M9.085 17.386c-5.073-.203-1.968-6.595 1.33-6.328-1.337 1.97-2.094 4.392-1.33 6.328z" fill="url(#paint3_linear_238_307)"/><path d="M3.64 8.473c-.014-.025-.04-.041-.073-.032l-.493.132c-.02.006-.029.025-.03.049l.06.617a.11.11 0 00.06.088l.18.083c.033.02.08.031.084.047.004.016-.005.035-.038.044l-.767.208c-.027.007-.044-.006-.048-.022-.005-.016.016-.045.032-.066l.146-.2c.031-.044.023-.1.017-.15L2.402 5.5c-.001-.03.007-.054.04-.063l.246-.066c.033-.01.06.012.076.043L4.37 8.846c.021.052.058.106.113.126l.23.087c.025.011.05.022.054.038.004.016-.005.036-.038.045l-.96.26c-.033.008-.05-.004-.055-.02-.004-.017.018-.04.033-.061l.14-.194c.022-.029.025-.07.005-.116l-.252-.538zm-.183-.309c.02-.005.03-.025.017-.044l-.588-1.253-.014.003.136 1.38c0 .024.016.03.03.027l.42-.113z" fill="#000"/><path d="M22.379 24.903a1.123 1.123 0 001.377-.793l4.948-18.36a1.123 1.123 0 00-.792-1.377L15.754 1.098a1.123 1.123 0 00-1.376.792L9.429 20.252c-.161.6.194 1.215.792 1.376l12.158 3.275z" fill="url(#paint4_linear_238_307)"/><path d="M22.534 24.327a.527.527 0 00.645-.37l4.947-18.363a.525.525 0 00-.371-.645L15.598 1.674a.528.528 0 00-.645.37l-4.948 18.363c-.076.28.09.569.371.645l12.158 3.275z" fill="url(#paint5_linear_238_307)"/><path d="M16.237 6.032c0-.028-.014-.055-.048-.064l-.493-.132c-.02-.006-.038.007-.05.027l-.259.564a.11.11 0 00.008.105l.114.163c.02.034.054.066.05.082-.004.016-.022.029-.056.02l-.767-.205c-.027-.007-.036-.027-.031-.043.004-.016.037-.03.06-.04l.227-.101c.05-.022.07-.074.09-.12l1.572-3.449c.014-.025.033-.043.067-.034l.246.066c.033.01.046.042.044.075l-.33 3.775c-.008.056-.004.12.035.165l.156.191c.015.022.031.043.027.06-.004.015-.022.028-.056.02l-.96-.258c-.033-.009-.042-.028-.038-.045.005-.016.036-.025.06-.035l.219-.097c.032-.014.056-.049.062-.099l.05-.59zm-.005-.358c.02.005.038-.007.037-.03l.118-1.38-.013-.003-.574 1.263c-.013.02-.002.034.011.038l.421.112z" fill="#EB3000"/><path d="M19.399 11.774c-.765-3.182-4.899-3.135-5.636-.38-.825 3.087 2.87 5.245 3.448 8.478l.01.046.03-.034c2.115-2.514 6.394-2.538 7.22-5.625.736-2.755-2.82-4.86-5.072-2.485z" fill="url(#paint6_linear_238_307)"/><path d="M16.715 10.06c-4.689.236-1.806 7.301 1.241 6.998-1.24-2.176-1.944-4.855-1.241-6.998z" fill="url(#paint7_linear_238_307)"/><defs><linearGradient id="paint0_linear_238_307" x1="8.679" y1="26.485" x2="11.259" y2="2.607" gradientUnits="userSpaceOnUse"><stop stop-color="#C1C1C2"/><stop offset=".1" stop-color="#CACACB"/><stop offset=".425" stop-color="#E0E0E1"/><stop offset=".732" stop-color="#EEEEEF"/><stop offset="1" stop-color="#F3F3F4"/></linearGradient><linearGradient id="paint1_linear_238_307" x1="14.264" y1="15.406" x2="5.445" y2="11.537" gradientUnits="userSpaceOnUse"><stop stop-color="#8B8B8B"/><stop offset=".181" stop-color="#AAAAAB"/><stop offset=".404" stop-color="#CACACA"/><stop offset=".62" stop-color="#E1E1E1"/><stop offset=".823" stop-color="#EEEEEF"/><stop offset="1" stop-color="#F3F3F4"/></linearGradient><linearGradient id="paint3_linear_238_307" x1="5.875" y1="20.077" x2="8.162" y2="12.822" gradientUnits="userSpaceOnUse"><stop stop-color="#fff"/><stop offset="1" stop-color="#fff" stop-opacity="0"/></linearGradient><linearGradient id="paint4_linear_238_307" x1="25.12" y1="3.822" x2="13.49" y2="22.096" gradientUnits="userSpaceOnUse"><stop stop-color="#fff"/><stop offset=".406" stop-color="#FCFCFC"/><stop offset=".711" stop-color="#F2F2F2"/><stop offset=".982" stop-color="#E2E2E2"/><stop offset="1" stop-color="#E1E1E1"/></linearGradient><linearGradient id="paint5_linear_238_307" x1="13.901" y1="9.195" x2="25.607" y2="19.432" gradientUnits="userSpaceOnUse"><stop stop-color="#E1E1E1"/><stop offset=".116" stop-color="#ECECEC"/><stop offset=".316" stop-color="#FAFAFA"/><stop offset=".491" stop-color="#fff"/><stop offset=".698" stop-color="#FCFCFC"/><stop offset=".853" stop-color="#F2F2F2"/><stop offset=".991" stop-color="#E2E2E2"/><stop offset="1" stop-color="#E1E1E1"/></linearGradient><linearGradient id="paint6_linear_238_307" x1="14.5" y1="14" x2="18.959" y2="20.002" gradientUnits="userSpaceOnUse"><stop offset=".391" stop-color="#F42522"/><stop offset="1" stop-color="#A60605"/></linearGradient><linearGradient id="paint7_linear_238_307" x1="13.742" y1="7.09" x2="16.675" y2="14.806" gradientUnits="userSpaceOnUse"><stop stop-color="#fff"/><stop offset="1" stop-color="#fff" stop-opacity="0"/></linearGradient><radialGradient id="paint2_radial_238_307" cx="0" cy="0" r="1" gradientUnits="userSpaceOnUse" gradientTransform="rotate(-.096 7681.731 -3903.07) scale(6.23405)"><stop stop-color="#6F706D"/><stop offset=".829" stop-color="#050505"/></radialGradient></defs></svg>