<svg width="29" height="28" fill="none" xmlns="http://www.w3.org/2000/svg"><path d="M16.148.501c4.822 5.775 9.337 10.306 12.85 13.633-4.536 4.202-8.904 8.703-13.15 13.367h-2.995l.001-.003C17.1 22.835 21.464 18.337 26 14.136 22.5 10.823 18.008 6.315 13.209.573L13.196.5h1.066l1.886.001z" fill="url(#paint0_linear_237_327)"/><path d="M28.999 14.134s-8.904 8.702-13.15 13.367h-2.995v-.003C17.1 22.835 26 14.135 26 14.135l2.999-.001z" fill="url(#paint1_linear_237_327)"/><path d="M13.15.503C17.97 6.278 22.486 10.809 26 14.136c-4.537 4.201-8.904 8.702-13.15 13.367C8.924 22.749 4.655 18.163 0 13.87A161.422 161.422 0 0013.15.503z" fill="url(#paint2_radial_237_327)"/><path d="M12.374 26.93c.16.19.318.381.476.573 4.246-4.665 8.613-9.166 13.15-13.367-3.514-3.327-8.03-7.858-12.85-13.633a157 157 0 01-.511.582A159.268 159.268 0 0025 14.135c-4.35 4.03-8.545 8.334-12.626 12.794z" fill="url(#paint3_linear_237_327)"/><path d="M3.548 15.578c4.233-3.863 9.654-6.406 15.64-6.995A136.161 136.161 0 0113.28 1.96 142.78 142.78 0 011.648 13.785c.642.591 1.275 1.19 1.9 1.793z" fill="url(#paint4_linear_237_327)"/><defs><linearGradient id="paint0_linear_237_327" x1="11.354" y1="1.339" x2="17.577" y2="30.488" gradientUnits="userSpaceOnUse"><stop offset=".089" stop-color="#FB502A"/><stop offset=".446" stop-color="#D31816"/><stop offset="1" stop-color="#7B0201"/></linearGradient><linearGradient id="paint1_linear_237_327" x1="11.354" y1="29.839" x2="27.089" y2="15.089" gradientUnits="userSpaceOnUse"><stop stop-color="#FB502A"/><stop offset=".487" stop-color="#D31816"/><stop offset="1" stop-color="#7B0201"/></linearGradient><linearGradient id="paint3_linear_237_327" x1="39.355" y1="13.839" x2="13.912" y2="15.652" gradientUnits="userSpaceOnUse"><stop stop-color="#fff"/><stop offset="1" stop-color="#fff" stop-opacity="0"/></linearGradient><linearGradient id="paint4_linear_237_327" x1="46.608" y1="-33.13" x2="-8.798" y2="-26.744" gradientUnits="userSpaceOnUse"><stop stop-color="#fff"/><stop offset="1" stop-color="#fff" stop-opacity="0"/></linearGradient><radialGradient id="paint2_radial_237_327" cx="0" cy="0" r="1" gradientUnits="userSpaceOnUse" gradientTransform="matrix(7.22263 23.44781 -23.85388 7.34771 7.817 6.942)"><stop stop-color="#FB502A"/><stop offset=".515" stop-color="#D31816"/><stop offset="1" stop-color="#7B0201"/></radialGradient></defs></svg>