<svg width="26" height="24" fill="none" xmlns="http://www.w3.org/2000/svg"><g clip-path="url(#clip0_208_666)" fill-rule="evenodd" clip-rule="evenodd"><path d="M18.023 3.893l6.007 4.62.985 3.204-4.628-.094-7.485-3.3-6.008-4.618L5.909.5h4.629l7.485 3.393z" fill="url(#paint0_radial_208_666)"/><path d="M5.91.5L0 2.48l1.379 4.43 5.515-3.205L5.909.5z" fill="url(#paint1_radial_208_666)"/><path d="M6.894 3.705L1.38 6.91l8.174 6.316 3.349-4.902-6.008-4.619z" fill="url(#paint2_radial_208_666)"/><path d="M12.901 8.323l7.485 3.3-.59 6.127-10.243-4.525L12.9 8.323z" fill="url(#paint3_radial_208_666)"/><path d="M25.015 11.717L26 17.75h-6.205l.59-6.127 4.63.094z" fill="url(#paint4_radial_208_666)"/><path d="M1.379 6.91L4.924 23.5l4.63-10.275-8.175-6.316z" fill="url(#paint5_radial_208_666)"/><path d="M9.553 13.226l10.242 4.524L4.924 23.5l4.629-10.274z" fill="url(#paint6_radial_208_666)"/><path d="M26 17.75L4.924 23.5l14.871-5.75H26z" fill="url(#paint7_radial_208_666)"/><path d="M0 2.48L4.924 23.5 1.38 6.91 0 2.48z" fill="#85F2FF"/><path opacity=".75" d="M2.265 10.963c-.098-2.923 1.182-2.074 2.56-.66 4.236 4.147 2.857 6.598.986 11.311 1.28-2.828 2.462-5.561 3.742-8.39-2.757-2.072-5.417-4.24-8.173-6.314.295 1.32.59 2.734.886 4.054z" fill="#9FDFFF"/><path opacity=".5" d="M12.704 14.64c4.235 1.885 2.462 4.053-1.083 5.75L4.924 23.5l14.871-5.844-7.09-3.016z" fill="url(#paint8_radial_208_666)"/><path d="M6.893 3.704L6.007.782c.296 1.508.492 2.074.099 2.734-.493.66-1.675 1.602-2.561 2.168l3.348-1.98z" fill="#8FFCFF"/><path d="M12.901 8.324L6.893 3.705 3.545 5.59c1.674-.848 2.659-1.225 3.348-.942.69.188 1.478.754 2.758 1.696 1.379 1.037 1.97 1.98 1.97 2.545 0 .66-.69 1.98-1.576 3.488L12.9 8.324z" fill="#fff"/><path opacity=".5" d="M12.902 8.323l-2.856 4.053c1.28-1.79 2.364-2.639 3.053-2.733.985-.189 2.364.094 5.121 1.037l-5.318-2.357z" fill="#8FFCFF"/></g><defs><radialGradient id="paint0_radial_208_666" cx="0" cy="0" r="1" gradientUnits="userSpaceOnUse" gradientTransform="matrix(23.9621 0 0 22.9348 7.359 3.971)"><stop stop-color="#C4EEFF"/><stop offset=".329" stop-color="#4CCAFF"/><stop offset="1" stop-color="#003EB0"/></radialGradient><radialGradient id="paint1_radial_208_666" cx="0" cy="0" r="1" gradientUnits="userSpaceOnUse" gradientTransform="matrix(9.11064 0 0 8.72002 -.657 -.544)"><stop stop-color="#A5E2FF"/><stop offset="1" stop-color="#218CF3"/></radialGradient><radialGradient id="paint2_radial_208_666" cx="0" cy="0" r="1" gradientUnits="userSpaceOnUse" gradientTransform="matrix(26.3452 0 0 25.2156 7.018 4.53)"><stop stop-color="#A5E2FF"/><stop offset="1" stop-color="#08F"/></radialGradient><radialGradient id="paint3_radial_208_666" cx="0" cy="0" r="1" gradientUnits="userSpaceOnUse" gradientTransform="matrix(18.31 0 0 17.525 11.276 24.645)"><stop stop-color="#A5E2FF"/><stop offset="1" stop-color="#0069C2"/></radialGradient><radialGradient id="paint4_radial_208_666" cx="0" cy="0" r="1" gradientUnits="userSpaceOnUse" gradientTransform="matrix(13.3022 0 0 12.7319 27.213 8.011)"><stop stop-color="#4CCAFF"/><stop offset="1" stop-color="#003EB0"/></radialGradient><radialGradient id="paint5_radial_208_666" cx="0" cy="0" r="1" gradientUnits="userSpaceOnUse" gradientTransform="matrix(11.6206 0 0 11.1224 -.644 16.81)"><stop stop-color="#A5E2FF"/><stop offset="1" stop-color="#218CF3"/></radialGradient><radialGradient id="paint6_radial_208_666" cx="0" cy="0" r="1" gradientUnits="userSpaceOnUse" gradientTransform="matrix(21.3608 0 0 20.4449 8.15 27.225)"><stop stop-color="#77D6FF"/><stop offset="1" stop-color="#001FB0"/></radialGradient><radialGradient id="paint7_radial_208_666" cx="0" cy="0" r="1" gradientUnits="userSpaceOnUse" gradientTransform="matrix(19.3798 0 0 18.5488 5.299 24.288)"><stop stop-color="#A5E2FF"/><stop offset="1" stop-color="#0081FF"/></radialGradient><radialGradient id="paint8_radial_208_666" cx="0" cy="0" r="1" gradientUnits="userSpaceOnUse" gradientTransform="matrix(12.1581 0 0 11.6368 9.413 13.63)"><stop offset=".312" stop-color="#00000D"/><stop offset="1" stop-color="#1CB4FF"/></radialGradient><clipPath id="clip0_208_666"><path fill="#fff" transform="translate(0 .5)" d="M0 0h26v23H0z"/></clipPath></defs></svg>