<svg width="28" height="28" fill="none" xmlns="http://www.w3.org/2000/svg"><path d="M7.66 25.91a13.432 13.432 0 01-5.808-6.024c-.004-.01-.01-.02-.012-.031a13.59 13.59 0 01-.793-2.061 13.43 13.43 0 01-.087-7.281 13.537 13.537 0 012.582-5.046 13.43 13.43 0 016.664-4.42c.96-.282 1.929-.451 2.89-.514a13.45 13.45 0 017.277 1.57c.059.03.112.06.166.093a13.408 13.408 0 015.607 5.914 13.544 13.544 0 011.33 6.69 13.546 13.546 0 01-4.373 9.169 13.394 13.394 0 01-4.74 2.802h-.002a13.436 13.436 0 01-10.7-.861z" fill="url(#paint0_linear_237_345)"/><path d="M3.457 20.75l-.004-.002c-.052-.012-.79-.186-1.53-.82a13.302 13.302 0 01-.847-2.112 13.034 13.034 0 01-.093-7.352c.217-.08.532-.175.71-.137h.003a.448.448 0 01.042.013l.147.147a30.804 30.804 0 001.13 1.11c.015.013.029.027.047.04l.045.04c.06.055.112.1.16.132.003.007.01.01.016.014a.041.041 0 00.01.01c0 .002.003 0 .003.002l.886 5.602v.004l-.716 3.27.001.003-.01.036z" fill="url(#paint1_linear_237_345)"/><path opacity=".3" d="M3.457 20.75l-.004-.002c-.052-.012-.79-.186-1.53-.82a13.302 13.302 0 01-.847-2.112 13.034 13.034 0 01-.093-7.352c.217-.08.532-.175.71-.137h.003a.448.448 0 01.042.013l.147.147a30.804 30.804 0 001.13 1.11c.015.013.029.027.047.04l.045.04c.06.055.112.1.16.132.003.007.01.01.016.014a.041.041 0 00.01.01c0 .002.003 0 .003.002l.886 5.602v.004l-.716 3.27.001.003-.01.036z" fill="url(#paint2_linear_237_345)"/><path d="M7.47 25.659a13.47 13.47 0 01-5.743-6.136l1.451.854.004.002.017.015v.003l4.654 4.073c.097.702-.474.986-.382 1.189z" fill="url(#paint3_linear_237_345)"/><path opacity=".2" d="M7.47 25.659a13.47 13.47 0 01-5.743-6.136l1.451.854.004.002.017.015v.003l4.654 4.073c.097.702-.474.986-.382 1.189z" fill="url(#paint4_linear_237_345)"/><path opacity=".26" d="M7.47 25.659a13.47 13.47 0 01-5.743-6.136l1.451.854.004.002.017.015v.003l4.654 4.073c.097.702-.474.986-.382 1.189z" fill="url(#paint5_linear_237_345)"/><path d="M17.733 26.94a13.407 13.407 0 01-10.23-1.063 3.302 3.302 0 01-.253-.139c.231-.599.644-1.06.644-1.06l2.436-.86 5.576 1.005 3.003 1.708c-.198.08-.395.154-.601.225h-.003c-.188.065-.378.126-.572.184z" fill="url(#paint6_linear_237_345)"/><path d="M23.205 23.818l1.009-3.545 2.57-4.832L27.5 14c-.004.17-.012.34-.02.508-.197 3.437-1.643 6.666-3.995 9.035-.092.095-.185.184-.28.275z" fill="url(#paint7_linear_237_345)"/><path d="M6.644 4.703l-2.968.681-.108.025a13.132 13.132 0 016.525-4.375A13.071 13.071 0 0113.386.5l-.944.963v.003l-.461.468L7.266 4.38l-.033.017-.589.305z" fill="url(#paint8_linear_237_345)"/><path d="M26.273 7.864l-.657-.319-.008-.004a8.223 8.223 0 01-.036-.23c-.003-.019-.262-.089-.265-.106l-.012-.068s-.477-1.715-3.95-3.837c0 0-.005-.004-.017-.006-.005-.003-.013-.005-.02-.007a3.676 3.676 0 00-.209-.069h-.003l-.015-.017-.331-.86c.055.026.106.054.159.083 2.124 1.13 3.92 2.831 5.11 4.965.09.154.172.314.254.475z" fill="url(#paint9_linear_237_345)"/><path d="M12.427 1.113S9.08 1.72 7.222 3.711c0 0-.819 2.14-.52 4.129 0 0 2.822 1.199 3.949 1.864l5.733-2.825.684-3.897s-.935-1.387-4.641-1.869z" fill="url(#paint10_linear_237_345)"/><path opacity=".3" d="M12.427 1.113S9.08 1.72 7.222 3.711c0 0-.819 2.14-.52 4.129 0 0 2.822 1.199 3.949 1.864l5.733-2.825.684-3.897s-.935-1.387-4.641-1.869z" fill="url(#paint11_linear_237_345)"/><path d="M3.029 11.791s-.448 1.823.86 5.77c0 0 1.895 1.415 4.699 1.961l2.958-3.413s-.834-3.467-.805-6.33c0 0-2.467-1.575-3.866-1.915 0 0-.545-.073-1.868 1.415-1.32 1.487-1.935 2.233-1.978 2.512z" fill="url(#paint12_linear_237_345)"/><path opacity=".3" d="M3.029 11.791s-.448 1.823.86 5.77c0 0 1.895 1.415 4.699 1.961l2.958-3.413s-.834-3.467-.805-6.33c0 0-2.467-1.575-3.866-1.915 0 0-.545-.073-1.868 1.415-1.32 1.487-1.935 2.233-1.978 2.512z" fill="url(#paint13_linear_237_345)"/><path d="M16.192 24.965s-2.686.501-5.768-1.003c0 0-1.5-2.365-1.946-4.677 0 0 2.924-3.185 2.998-3.444 0 0 4.823 1.09 5.447 1.174.625.084 1.16.168 1.224.038l1.99 4.06s-1.393 2.324-3.945 3.852z" fill="url(#paint14_linear_237_345)"/><path opacity=".3" d="M16.192 24.965s-2.686.501-5.768-1.003c0 0-1.5-2.365-1.946-4.677 0 0 2.924-3.185 2.998-3.444 0 0 4.823 1.09 5.447 1.174.625.084 1.16.168 1.224.038l1.99 4.06s-1.393 2.324-3.945 3.852z" fill="url(#paint15_linear_237_345)"/><path opacity=".3" d="M16.192 24.965s-2.686.501-5.768-1.003c0 0-1.5-2.365-1.946-4.677 0 0 2.924-3.185 2.998-3.444 0 0 4.823 1.09 5.447 1.174.625.084 1.16.168 1.224.038l1.99 4.06s-1.393 2.324-3.945 3.852z" fill="url(#paint16_linear_237_345)"/><path d="M25.41 7.339s-.5-1.818-4.143-4.07c0 0-1.953-.795-4.154.146l-.658 3.755 4.32 4.376s1.138-.186 1.922-.232c.784-.045 2.563-.185 2.806.115 0 0 .4-1.312-.08-4.018" fill="url(#paint17_linear_237_345)"/><path opacity=".1" d="M25.41 7.339s-.5-1.818-4.143-4.07c0 0-1.953-.795-4.154.146l-.658 3.755 4.32 4.376s1.138-.186 1.922-.232c.784-.045 2.563-.185 2.806.115 0 0 .4-1.312-.08-4.018" fill="url(#paint18_linear_237_345)"/><path opacity=".05" d="M25.41 7.339s-.5-1.818-4.143-4.07c0 0-1.953-.795-4.154.146l-.658 3.755 4.32 4.376s1.138-.186 1.922-.232c.784-.045 2.563-.185 2.806.115 0 0 .4-1.312-.08-4.018" fill="url(#paint19_linear_237_345)"/><path d="M18.343 26.885l-.003.002c-1.56-.562-2.52-1.922-2.499-2.03 0 0 3.245-2.565 3.898-4.043l.072-.009 4.599-.668c.129 1.234-.334 2.524-.785 3.454-.1.099-.2.194-.301.29a14.018 14.018 0 01-4.98 3.004z" fill="url(#paint20_linear_237_345)"/><path d="M17.682 25.782c.284.19.61.365.978.491h.001a12.235 12.235 0 004.573-2.726 6.94 6.94 0 00.584-1.57 30.647 30.647 0 01-6.136 3.805z" fill="url(#paint21_radial_237_345)"/><path d="M4.225 17.068s-.466 1.154-.609 2.273a4.07 4.07 0 00-.033.944c.042.454.908 1.536 1.822 2.397 1.325 1.252 2.343 1.766 2.696 1.75.693-.03 2.217-.823 2.217-.823s-1.336-2.422-1.757-4.636c0 0-.958-.067-4.336-1.905z" fill="url(#paint22_linear_237_345)"/><path d="M6.773 8.006s-.367.066-1.043.648c-.786.676-2.44 2.552-2.558 2.891 0 0-1.076-.911-1.31-1.29-.233-.38-.171-1.29.252-2.29.425-1 1.275-2.675 2.591-3.157 1.316-.483 2.545-.626 2.545-.626s-.724 2.504-.477 3.824z" fill="url(#paint23_linear_237_345)"/><path opacity=".98" d="M6.637 4.182c-.487.095-1.173.258-1.886.52-1.336.492-2.2 2.198-2.63 3.217-.431 1.02-.494 1.946-.256 2.332.102.165.36.431.624.68a19.825 19.825 0 014.148-6.75z" fill="url(#paint24_radial_237_345)"/><path d="M21.363 2.823s-.005-.003-.017-.005v-.002a2.777 2.777 0 00-.258-.088 5.005 5.005 0 00-1.315-.18c-.138-.004-.284 0-.436.01a8.356 8.356 0 00-2.117.397c-.23-.306-1.838-1.154-4.447-1.62.144-.304.437-.595.688-.807a15.01 15.01 0 017.448 1.46c.364.43.454.835.454.835z" fill="url(#paint25_linear_237_345)"/><path opacity=".3" d="M18.543 2.727c.139-.021.284-.04.44-.052a3.469 3.469 0 01.429-.01c.494.011.87.11 1.098.19.117.04.193.077.225.092v.002l.015.006s-.078-.434-.396-.895A11.086 11.086 0 0015.227.5l3.316 2.227z" fill="url(#paint26_radial_237_345)"/><path d="M26.924 15.84l-1.266-4.388.042-.131c.168-.489.228-1.018.27-1.522l.008-.125c.057-.837-.02-1.557-.127-2.382.058-.113.25.023.382.145.074.175.141.356.208.536.251.686.462 1.41.629 2.165a18.218 18.218 0 01.41 4.754c-.343.812-.556.949-.556.949z" fill="url(#paint27_linear_237_345)"/><path d="M25.662 7.345l.012.07.01.054c.01.061.026.143.04.239.068.41.152 1.106.09 1.864-.003.04-.004.077-.008.114a.855.855 0 01-.01.073c.705.982 1.102 1.951 1.703 3.014a13.494 13.494 0 00-.47-2.778 13.237 13.237 0 00-.955-2.448c-.35-.329-.436-.366-.412-.202z" fill="url(#paint28_radial_237_345)"/><path d="M20.53 11.88s2.083-.242 3.093-.32c.641-.048 1.332.022 1.6.123.898.877 1.72 4.135 1.66 4.3.04.65-.723 1.626-1.053 2.283-.33.657-1.145 1.877-1.643 2.444 0 0-1.265.497-2.927.606-1.661.109-1.724-.005-1.724-.005s-1.48-3.439-1.854-4.075l2.848-5.357z" fill="url(#paint29_linear_237_345)"/><path d="M11.162 13.192c.18 1.06.337 1.914.407 2.357.07.445.087.501 1.285.7 1.198.197 4.473.83 4.905.819.392-.011.242.09.96-1.154.605-1.051 1.491-2.886 1.758-3.473.267-.586.456-1.012-.018-1.588-.473-.576-1.314-1.587-2.276-2.425-.964-.838-1.634-1.28-2.056-1.158-.423.12-2.224.868-3.635 1.597-1.411.729-1.543.922-1.556 1.512-.012.593-.018 1.367.226 2.813z" fill="url(#paint30_linear_237_345)"/><path d="M20.627 11.854c-.267.595-1.154 2.455-1.76 3.52-.717 1.262-.567 1.159-.959 1.17-.432.013-3.708-.63-4.906-.83-1.2-.201-1.217-.259-1.287-.709-.07-.45-.226-1.315-.407-2.39-.243-1.465-.238-2.25-.225-2.85 0-.022.003-.04.003-.06-.116.17-.145.346-.15.584-.012.6-.018 1.385.226 2.85.18 1.075.337 1.94.407 2.39.07.45.087.508 1.286.709 1.198.2 4.474.843 4.907.83.391-.011.241.092.959-1.17.606-1.065 1.492-2.925 1.76-3.52.133-.297.247-.554.269-.809a8.191 8.191 0 01-.123.285z" fill="#194E94"/><path d="M6.637 8.478s3.255 1.458 3.494 1.721c.238.263.104.56.26 2.058.157 1.497.492 3.406.538 3.544.044.139-.342.046-.792-2.379-.177-.957-.096-2.644-.68-3.045-.585-.402-2.626-1.564-2.82-1.9z" fill="url(#paint31_radial_237_345)"/><path opacity=".7" d="M11.568 16.455c.352.006 3.952.722 4.94.913.99.19 1.056.112 1.493.883.328.579 1.5 2.868 1.52 3.067.02.198-.249-.214-1.08-1.73-.97-1.776-1.05-1.546-1.358-1.637-.442-.133-4.513-.955-5.093-1.186-.58-.233-.43-.186-.422-.31z" fill="url(#paint32_radial_237_345)"/><path d="M12.159 1.113S9.858 1.86 8.58 2.626c-1.278.768-1.33.942-1.33.942s.114-.435 1.845-1.415c1.732-.98 2.748-1.026 3.064-1.04z" fill="url(#paint33_radial_237_345)"/><path opacity=".3" d="M10.318 23.818s-.782-.812-1.368-2.289c-.587-1.478-.278-1.454-1.2-1.882-.921-.429-2.114-1.175-2.34-1.352 0 0 1.977.937 2.46 1.023.483.087.566.092.71.396.142.304.785 2.45 1.738 4.104z" fill="url(#paint34_linear_237_345)"/><path d="M20.75 2.82s-1.264-.38-2.487-.11-1.112.314-1.291.147c-.18-.169-1.573-.834-2.972-1.13 0 0 .583.071 1.4.252.815.182 1.489.745 1.934.698.444-.047 2.347-.382 3.416.143z" fill="url(#paint35_radial_237_345)"/><path opacity=".5" d="M17.067 26.271c-.253-.238-.598-.56-.852-.935-.256-.374-.18-.245-1.096-.195-.916.051-2.999-.499-3.365-.649-.367-.15-.185.011.048.133.234.123 1.702.603 2.44.701 1.12.149 1.49.023 1.744.27.253.248 1.112.704 1.08.675z" fill="url(#paint36_radial_237_345)"/><path opacity=".7" d="M20.338 25.91a13.427 13.427 0 005.808-6.025c.005-.01.011-.02.014-.03.315-.654.58-1.342.792-2.062a13.427 13.427 0 00.087-7.28 13.533 13.533 0 00-2.582-5.046 13.431 13.431 0 00-6.663-4.42 13.41 13.41 0 00-2.89-.514 13.447 13.447 0 00-7.277 1.57c-.06.03-.112.061-.167.093a13.409 13.409 0 00-5.34 5.397c-.094.17-.181.345-.267.517a13.56 13.56 0 00-1.33 6.69 13.543 13.543 0 004.373 9.168 13.394 13.394 0 004.74 2.803h.002a13.431 13.431 0 0010.7-.861z" fill="url(#paint37_radial_237_345)"/><path d="M17.681 2.848C4.087-3.306-3.696 17.72 5.473 21.363c1.417-6.98 5.452-14.396 12.208-18.515z" fill="url(#paint38_linear_237_345)"/><path opacity=".49" d="M27.5 15.227s-.214.519-.427.75c0 0-.28 1.007-1.054 2.355a25.59 25.59 0 01-1.587 2.418s.622-.561 1.182-1.399c.56-.837 1.359-2.188 1.595-3.237 0 0 .246-.425.29-.887z" fill="url(#paint39_linear_237_345)"/><path d="M20.75 12.096c-.022-.242 1.511-.506 2.617-.54 1.105-.033 1.692-.025 1.972.448.281.472.32.768.32.768s-.091-.147-.517-.617c-.426-.472-1.254-.395-2.413-.357-.809.027-1.964.46-1.979.298z" fill="url(#paint40_linear_237_345)"/><defs><linearGradient id="paint0_linear_237_345" x1="6.174" y1="24.635" x2="21.714" y2="3.517" gradientUnits="userSpaceOnUse"><stop stop-color="#595A59"/><stop offset=".025" stop-color="#636463"/><stop offset=".161" stop-color="#959695"/><stop offset=".29" stop-color="#BCBDBC"/><stop offset=".408" stop-color="#D8DAD9"/><stop offset=".51" stop-color="#E9EBEA"/><stop offset=".586" stop-color="#EFF1F0"/><stop offset="1" stop-color="#fff"/></linearGradient><linearGradient id="paint1_linear_237_345" x1="-4.21" y1="17.41" x2="34.793" y2="5.518" gradientUnits="userSpaceOnUse"><stop stop-color="#595A59"/><stop offset=".025" stop-color="#636463"/><stop offset=".161" stop-color="#959695"/><stop offset=".29" stop-color="#BCBDBC"/><stop offset=".408" stop-color="#D8DAD9"/><stop offset=".51" stop-color="#E9EBEA"/><stop offset=".586" stop-color="#EFF1F0"/><stop offset="1" stop-color="#fff"/></linearGradient><linearGradient id="paint2_linear_237_345" x1="4.587" y1="10.85" x2=".525" y2="19.699" gradientUnits="userSpaceOnUse"><stop/><stop offset=".008" stop-color="#303030"/><stop offset=".017" stop-color="#5B5B5B"/><stop offset=".026" stop-color="#838383"/><stop offset=".037" stop-color="#A4A4A4"/><stop offset=".048" stop-color="#C1C1C1"/><stop offset=".061" stop-color="#D8D8D8"/><stop offset=".075" stop-color="#E9E9E9"/><stop offset=".092" stop-color="#F6F6F6"/><stop offset=".116" stop-color="#FDFDFD"/><stop offset=".172" stop-color="#fff"/><stop offset=".866" stop-color="#fff"/><stop offset=".896" stop-color="#FCFCFC"/><stop offset=".915" stop-color="#F4F4F4"/><stop offset=".93" stop-color="#E6E6E6"/><stop offset=".943" stop-color="#D2D2D2"/><stop offset=".955" stop-color="#B7B7B7"/><stop offset=".967" stop-color="#979797"/><stop offset=".977" stop-color="#717171"/><stop offset=".987" stop-color="#444"/><stop offset=".997" stop-color="#131313"/><stop offset="1"/></linearGradient><linearGradient id="paint3_linear_237_345" x1="3.929" y1="23.305" x2="17.375" y2="9.708" gradientUnits="userSpaceOnUse"><stop stop-color="#595A59"/><stop offset=".025" stop-color="#636463"/><stop offset=".161" stop-color="#959695"/><stop offset=".29" stop-color="#BCBDBC"/><stop offset=".408" stop-color="#D8DAD9"/><stop offset=".51" stop-color="#E9EBEA"/><stop offset=".586" stop-color="#EFF1F0"/><stop offset="1" stop-color="#fff"/></linearGradient><linearGradient id="paint4_linear_237_345" x1="5.287" y1="21.343" x2=".791" y2="29.074" gradientUnits="userSpaceOnUse"><stop/><stop offset=".008" stop-color="#303030"/><stop offset=".017" stop-color="#5B5B5B"/><stop offset=".026" stop-color="#838383"/><stop offset=".037" stop-color="#A4A4A4"/><stop offset=".048" stop-color="#C1C1C1"/><stop offset=".061" stop-color="#D8D8D8"/><stop offset=".075" stop-color="#E9E9E9"/><stop offset=".092" stop-color="#F6F6F6"/><stop offset=".116" stop-color="#FDFDFD"/><stop offset=".172" stop-color="#fff"/><stop offset=".866" stop-color="#fff"/><stop offset=".896" stop-color="#FCFCFC"/><stop offset=".915" stop-color="#F4F4F4"/><stop offset=".93" stop-color="#E6E6E6"/><stop offset=".943" stop-color="#D2D2D2"/><stop offset=".955" stop-color="#B7B7B7"/><stop offset=".967" stop-color="#979797"/><stop offset=".977" stop-color="#717171"/><stop offset=".987" stop-color="#444"/><stop offset=".997" stop-color="#131313"/><stop offset="1"/></linearGradient><linearGradient id="paint5_linear_237_345" x1="7.837" y1="25.265" x2=".317" y2="19.347" gradientUnits="userSpaceOnUse"><stop/><stop offset=".011" stop-color="#303030"/><stop offset=".023" stop-color="#5B5B5B"/><stop offset=".036" stop-color="#838383"/><stop offset=".05" stop-color="#A4A4A4"/><stop offset=".065" stop-color="#C1C1C1"/><stop offset=".082" stop-color="#D8D8D8"/><stop offset=".102" stop-color="#E9E9E9"/><stop offset=".125" stop-color="#F6F6F6"/><stop offset=".157" stop-color="#FDFDFD"/><stop offset=".233" stop-color="#fff"/><stop offset=".825" stop-color="#fff"/><stop offset=".865" stop-color="#FCFCFC"/><stop offset=".889" stop-color="#F4F4F4"/><stop offset=".908" stop-color="#E6E6E6"/><stop offset=".926" stop-color="#D2D2D2"/><stop offset=".942" stop-color="#B7B7B7"/><stop offset=".956" stop-color="#979797"/><stop offset=".97" stop-color="#717171"/><stop offset=".983" stop-color="#444"/><stop offset=".996" stop-color="#131313"/><stop offset="1"/></linearGradient><linearGradient id="paint6_linear_237_345" x1="12.85" y1="28.089" x2="14.119" y2="17.538" gradientUnits="userSpaceOnUse"><stop stop-color="#595A59"/><stop offset=".025" stop-color="#636463"/><stop offset=".161" stop-color="#959695"/><stop offset=".29" stop-color="#BCBDBC"/><stop offset=".408" stop-color="#D8DAD9"/><stop offset=".51" stop-color="#E9EBEA"/><stop offset=".586" stop-color="#EFF1F0"/><stop offset="1" stop-color="#fff"/></linearGradient><linearGradient id="paint7_linear_237_345" x1="21.528" y1="26.899" x2="27.732" y2="16.025" gradientUnits="userSpaceOnUse"><stop stop-color="#595A59"/><stop offset=".025" stop-color="#636463"/><stop offset=".161" stop-color="#959695"/><stop offset=".29" stop-color="#BCBDBC"/><stop offset=".408" stop-color="#D8DAD9"/><stop offset=".51" stop-color="#E9EBEA"/><stop offset=".586" stop-color="#EFF1F0"/><stop offset="1" stop-color="#fff"/></linearGradient><linearGradient id="paint8_linear_237_345" x1="-3.761" y1="8.506" x2="16.879" y2="-1.026" gradientUnits="userSpaceOnUse"><stop stop-color="#595A59"/><stop offset=".025" stop-color="#636463"/><stop offset=".161" stop-color="#959695"/><stop offset=".29" stop-color="#BCBDBC"/><stop offset=".408" stop-color="#D8DAD9"/><stop offset=".51" stop-color="#E9EBEA"/><stop offset=".586" stop-color="#EFF1F0"/><stop offset="1" stop-color="#fff"/></linearGradient><linearGradient id="paint9_linear_237_345" x1="27.929" y1="2.449" x2="23.319" y2="5.445" gradientUnits="userSpaceOnUse"><stop stop-color="#595A59"/><stop offset=".025" stop-color="#636463"/><stop offset=".161" stop-color="#959695"/><stop offset=".29" stop-color="#BCBDBC"/><stop offset=".408" stop-color="#D8DAD9"/><stop offset=".51" stop-color="#E9EBEA"/><stop offset=".586" stop-color="#EFF1F0"/><stop offset="1" stop-color="#fff"/></linearGradient><linearGradient id="paint10_linear_237_345" x1="4.139" y1="10.352" x2="14.729" y2="2.777" gradientUnits="userSpaceOnUse"><stop stop-color="#595A59"/><stop offset=".025" stop-color="#636463"/><stop offset=".161" stop-color="#959695"/><stop offset=".29" stop-color="#BCBDBC"/><stop offset=".408" stop-color="#D8DAD9"/><stop offset=".51" stop-color="#E9EBEA"/><stop offset=".586" stop-color="#EFF1F0"/><stop offset="1" stop-color="#fff"/></linearGradient><linearGradient id="paint11_linear_237_345" x1="13.734" y1=".702" x2="10.254" y2="9.505" gradientUnits="userSpaceOnUse"><stop/><stop offset=".008" stop-color="#303030"/><stop offset=".017" stop-color="#5B5B5B"/><stop offset=".026" stop-color="#838383"/><stop offset=".037" stop-color="#A4A4A4"/><stop offset=".048" stop-color="#C1C1C1"/><stop offset=".061" stop-color="#D8D8D8"/><stop offset=".075" stop-color="#E9E9E9"/><stop offset=".092" stop-color="#F6F6F6"/><stop offset=".116" stop-color="#FDFDFD"/><stop offset=".172" stop-color="#fff"/><stop offset=".866" stop-color="#fff"/><stop offset=".896" stop-color="#FCFCFC"/><stop offset=".915" stop-color="#F4F4F4"/><stop offset=".93" stop-color="#E6E6E6"/><stop offset=".943" stop-color="#D2D2D2"/><stop offset=".955" stop-color="#B7B7B7"/><stop offset=".967" stop-color="#979797"/><stop offset=".977" stop-color="#717171"/><stop offset=".987" stop-color="#444"/><stop offset=".997" stop-color="#131313"/><stop offset="1"/></linearGradient><linearGradient id="paint12_linear_237_345" x1="2.931" y1="17.858" x2="20.849" y2="2.205" gradientUnits="userSpaceOnUse"><stop stop-color="#595A59"/><stop offset=".025" stop-color="#636463"/><stop offset=".161" stop-color="#959695"/><stop offset=".29" stop-color="#BCBDBC"/><stop offset=".408" stop-color="#D8DAD9"/><stop offset=".51" stop-color="#E9EBEA"/><stop offset=".586" stop-color="#EFF1F0"/><stop offset="1" stop-color="#fff"/></linearGradient><linearGradient id="paint13_linear_237_345" x1="10.696" y1="17.367" x2="4.011" y2="10.308" gradientUnits="userSpaceOnUse"><stop/><stop offset=".008" stop-color="#303030"/><stop offset=".017" stop-color="#5B5B5B"/><stop offset=".026" stop-color="#838383"/><stop offset=".037" stop-color="#A4A4A4"/><stop offset=".048" stop-color="#C1C1C1"/><stop offset=".061" stop-color="#D8D8D8"/><stop offset=".075" stop-color="#E9E9E9"/><stop offset=".092" stop-color="#F6F6F6"/><stop offset=".116" stop-color="#FDFDFD"/><stop offset=".172" stop-color="#fff"/><stop offset=".866" stop-color="#fff"/><stop offset=".896" stop-color="#FCFCFC"/><stop offset=".915" stop-color="#F4F4F4"/><stop offset=".93" stop-color="#E6E6E6"/><stop offset=".943" stop-color="#D2D2D2"/><stop offset=".955" stop-color="#B7B7B7"/><stop offset=".967" stop-color="#979797"/><stop offset=".977" stop-color="#717171"/><stop offset=".987" stop-color="#444"/><stop offset=".997" stop-color="#131313"/><stop offset="1"/></linearGradient><linearGradient id="paint14_linear_237_345" x1="9.21" y1="23.59" x2="33.356" y2="6.17" gradientUnits="userSpaceOnUse"><stop stop-color="#595A59"/><stop offset=".025" stop-color="#636463"/><stop offset=".161" stop-color="#959695"/><stop offset=".29" stop-color="#BCBDBC"/><stop offset=".408" stop-color="#D8DAD9"/><stop offset=".51" stop-color="#E9EBEA"/><stop offset=".586" stop-color="#EFF1F0"/><stop offset="1" stop-color="#fff"/></linearGradient><linearGradient id="paint15_linear_237_345" x1="19.173" y1="18.595" x2="9.379" y2="22.082" gradientUnits="userSpaceOnUse"><stop/><stop offset=".008" stop-color="#303030"/><stop offset=".017" stop-color="#5B5B5B"/><stop offset=".026" stop-color="#838383"/><stop offset=".037" stop-color="#A4A4A4"/><stop offset=".048" stop-color="#C1C1C1"/><stop offset=".061" stop-color="#D8D8D8"/><stop offset=".075" stop-color="#E9E9E9"/><stop offset=".092" stop-color="#F6F6F6"/><stop offset=".116" stop-color="#FDFDFD"/><stop offset=".172" stop-color="#fff"/><stop offset=".866" stop-color="#fff"/><stop offset=".896" stop-color="#FCFCFC"/><stop offset=".915" stop-color="#F4F4F4"/><stop offset=".93" stop-color="#E6E6E6"/><stop offset=".943" stop-color="#D2D2D2"/><stop offset=".955" stop-color="#B7B7B7"/><stop offset=".967" stop-color="#979797"/><stop offset=".977" stop-color="#717171"/><stop offset=".987" stop-color="#444"/><stop offset=".997" stop-color="#131313"/><stop offset="1"/></linearGradient><linearGradient id="paint16_linear_237_345" x1="15.278" y1="15.975" x2="13.301" y2="25.023" gradientUnits="userSpaceOnUse"><stop/><stop offset=".008" stop-color="#303030"/><stop offset=".017" stop-color="#5B5B5B"/><stop offset=".026" stop-color="#838383"/><stop offset=".037" stop-color="#A4A4A4"/><stop offset=".048" stop-color="#C1C1C1"/><stop offset=".061" stop-color="#D8D8D8"/><stop offset=".075" stop-color="#E9E9E9"/><stop offset=".092" stop-color="#F6F6F6"/><stop offset=".116" stop-color="#FDFDFD"/><stop offset=".172" stop-color="#fff"/><stop offset=".866" stop-color="#fff"/><stop offset=".896" stop-color="#FCFCFC"/><stop offset=".915" stop-color="#F4F4F4"/><stop offset=".93" stop-color="#E6E6E6"/><stop offset=".943" stop-color="#D2D2D2"/><stop offset=".955" stop-color="#B7B7B7"/><stop offset=".967" stop-color="#979797"/><stop offset=".977" stop-color="#717171"/><stop offset=".987" stop-color="#444"/><stop offset=".997" stop-color="#131313"/><stop offset="1"/></linearGradient><linearGradient id="paint17_linear_237_345" x1="-4.116" y1="26.48" x2="26.136" y2="2.484" gradientUnits="userSpaceOnUse"><stop stop-color="#595A59"/><stop offset=".025" stop-color="#636463"/><stop offset=".161" stop-color="#959695"/><stop offset=".29" stop-color="#BCBDBC"/><stop offset=".408" stop-color="#D8DAD9"/><stop offset=".51" stop-color="#E9EBEA"/><stop offset=".586" stop-color="#EFF1F0"/><stop offset="1" stop-color="#fff"/></linearGradient><linearGradient id="paint18_linear_237_345" x1="27.052" y1="7.689" x2="16.172" y2="6.955" gradientUnits="userSpaceOnUse"><stop/><stop offset=".008" stop-color="#303030"/><stop offset=".017" stop-color="#5B5B5B"/><stop offset=".026" stop-color="#838383"/><stop offset=".037" stop-color="#A4A4A4"/><stop offset=".048" stop-color="#C1C1C1"/><stop offset=".061" stop-color="#D8D8D8"/><stop offset=".075" stop-color="#E9E9E9"/><stop offset=".092" stop-color="#F6F6F6"/><stop offset=".116" stop-color="#FDFDFD"/><stop offset=".172" stop-color="#fff"/><stop offset=".866" stop-color="#fff"/><stop offset=".896" stop-color="#FCFCFC"/><stop offset=".915" stop-color="#F4F4F4"/><stop offset=".93" stop-color="#E6E6E6"/><stop offset=".943" stop-color="#D2D2D2"/><stop offset=".955" stop-color="#B7B7B7"/><stop offset=".967" stop-color="#979797"/><stop offset=".977" stop-color="#717171"/><stop offset=".987" stop-color="#444"/><stop offset=".997" stop-color="#131313"/><stop offset="1"/></linearGradient><linearGradient id="paint19_linear_237_345" x1="20.791" y1="2.614" x2="21.177" y2="11.474" gradientUnits="userSpaceOnUse"><stop/><stop offset=".008" stop-color="#303030"/><stop offset=".017" stop-color="#5B5B5B"/><stop offset=".026" stop-color="#838383"/><stop offset=".037" stop-color="#A4A4A4"/><stop offset=".048" stop-color="#C1C1C1"/><stop offset=".061" stop-color="#D8D8D8"/><stop offset=".075" stop-color="#E9E9E9"/><stop offset=".092" stop-color="#F6F6F6"/><stop offset=".116" stop-color="#FDFDFD"/><stop offset=".172" stop-color="#fff"/><stop offset=".866" stop-color="#fff"/><stop offset=".896" stop-color="#FCFCFC"/><stop offset=".915" stop-color="#F4F4F4"/><stop offset=".93" stop-color="#E6E6E6"/><stop offset=".943" stop-color="#D2D2D2"/><stop offset=".955" stop-color="#B7B7B7"/><stop offset=".967" stop-color="#979797"/><stop offset=".977" stop-color="#717171"/><stop offset=".987" stop-color="#444"/><stop offset=".997" stop-color="#131313"/><stop offset="1"/></linearGradient><linearGradient id="paint20_linear_237_345" x1="23.19" y1="21.067" x2="18.608" y2="27.219" gradientUnits="userSpaceOnUse"><stop stop-color="#8CDDFF"/><stop offset=".438" stop-color="#1E92FF"/><stop offset="1" stop-color="#0B53BC"/></linearGradient><linearGradient id="paint22_linear_237_345" x1="9.343" y1="18.084" x2="4.128" y2="23.125" gradientUnits="userSpaceOnUse"><stop stop-color="#8CDDFF"/><stop offset=".438" stop-color="#1E92FF"/><stop offset="1" stop-color="#0B53BC"/></linearGradient><linearGradient id="paint23_linear_237_345" x1="6.452" y1="5.197" x2="1.375" y2="9.214" gradientUnits="userSpaceOnUse"><stop stop-color="#8CDDFF"/><stop offset=".438" stop-color="#1E92FF"/><stop offset="1" stop-color="#0B53BC"/></linearGradient><linearGradient id="paint25_linear_237_345" x1="20.122" y1=".838" x2="19.244" y2="4.079" gradientUnits="userSpaceOnUse"><stop stop-color="#8CDDFF"/><stop offset=".438" stop-color="#1E92FF"/><stop offset="1" stop-color="#0B53BC"/></linearGradient><linearGradient id="paint27_linear_237_345" x1="27.233" y1="8.434" x2="24.615" y2="9.026" gradientUnits="userSpaceOnUse"><stop stop-color="#8CDDFF"/><stop offset=".438" stop-color="#1E92FF"/><stop offset="1" stop-color="#0B53BC"/></linearGradient><linearGradient id="paint29_linear_237_345" x1="16.78" y1="20.937" x2="26.855" y2="11.815" gradientUnits="userSpaceOnUse"><stop stop-color="#595A59"/><stop offset=".025" stop-color="#636463"/><stop offset=".161" stop-color="#959695"/><stop offset=".29" stop-color="#BCBDBC"/><stop offset=".408" stop-color="#D8DAD9"/><stop offset=".51" stop-color="#E9EBEA"/><stop offset=".586" stop-color="#EFF1F0"/><stop offset="1" stop-color="#fff"/></linearGradient><linearGradient id="paint30_linear_237_345" x1="19.331" y1="8.604" x2="12.384" y2="15.931" gradientUnits="userSpaceOnUse"><stop stop-color="#8CDDFF"/><stop offset=".438" stop-color="#1E92FF"/><stop offset="1" stop-color="#0B53BC"/></linearGradient><linearGradient id="paint34_linear_237_345" x1="7.554" y1="18.093" x2="8.112" y2="24.025" gradientUnits="userSpaceOnUse"><stop stop-color="#fff"/><stop offset="1" stop-color="#fff" stop-opacity="0"/></linearGradient><linearGradient id="paint38_linear_237_345" x1="3.183" y1="6.057" x2="11.366" y2="12.4" gradientUnits="userSpaceOnUse"><stop stop-color="#fff"/><stop offset=".898" stop-color="#fff" stop-opacity="0"/></linearGradient><linearGradient id="paint39_linear_237_345" x1="27.403" y1="15.842" x2="24.344" y2="20.967" gradientUnits="userSpaceOnUse"><stop stop-color="#fff"/><stop offset=".997" stop-color="#fff" stop-opacity="0"/></linearGradient><linearGradient id="paint40_linear_237_345" x1="25.503" y1="12.331" x2="20.357" y2="11.592" gradientUnits="userSpaceOnUse"><stop stop-color="#fff" stop-opacity=".3"/><stop offset="1" stop-color="#fff"/></linearGradient><radialGradient id="paint21_radial_237_345" cx="0" cy="0" r="1" gradientUnits="userSpaceOnUse" gradientTransform="matrix(1.80216 17.70813 -18.1603 1.84818 29.178 14.573)"><stop stop-color="#fff"/><stop offset=".115" stop-color="#fff" stop-opacity=".896"/><stop offset="1" stop-color="#fff" stop-opacity=".1"/></radialGradient><radialGradient id="paint24_radial_237_345" cx="0" cy="0" r="1" gradientUnits="userSpaceOnUse" gradientTransform="matrix(.87712 8.69238 -8.83982 .892 2.846 1.81)"><stop stop-color="#fff"/><stop offset=".115" stop-color="#fff" stop-opacity=".885"/><stop offset="1" stop-color="#fff" stop-opacity="0"/></radialGradient><radialGradient id="paint26_radial_237_345" cx="0" cy="0" r="1" gradientUnits="userSpaceOnUse" gradientTransform="matrix(.48289 5.3815 -5.0091 .44947 16.89 3.83)"><stop stop-color="#fff"/><stop offset=".115" stop-color="#fff" stop-opacity=".885"/><stop offset="1" stop-color="#fff" stop-opacity="0"/></radialGradient><radialGradient id="paint28_radial_237_345" cx="0" cy="0" r="1" gradientUnits="userSpaceOnUse" gradientTransform="matrix(.85974 8.82253 -8.31454 .81024 22.452 14.864)"><stop stop-color="#fff"/><stop offset=".115" stop-color="#fff" stop-opacity=".919"/><stop offset="1" stop-color="#fff" stop-opacity=".3"/></radialGradient><radialGradient id="paint31_radial_237_345" cx="0" cy="0" r="1" gradientUnits="userSpaceOnUse" gradientTransform="rotate(84.022 -.441 10.987) scale(7.99276 8.42839)"><stop stop-color="#fff"/><stop offset=".115" stop-color="#fff" stop-opacity=".885"/><stop offset="1" stop-color="#fff" stop-opacity="0"/></radialGradient><radialGradient id="paint32_radial_237_345" cx="0" cy="0" r="1" gradientUnits="userSpaceOnUse" gradientTransform="matrix(.81878 8.24815 -8.25487 .81945 17.661 17.648)"><stop stop-color="#fff" stop-opacity="0"/><stop offset=".562" stop-color="#fff" stop-opacity=".7"/><stop offset=".844" stop-color="#fff" stop-opacity=".7"/></radialGradient><radialGradient id="paint33_radial_237_345" cx="0" cy="0" r="1" gradientUnits="userSpaceOnUse" gradientTransform="matrix(.91129 8.84782 -9.18075 .94558 10.796 4.128)"><stop stop-color="#fff"/><stop offset=".115" stop-color="#fff" stop-opacity=".896"/><stop offset="1" stop-color="#fff" stop-opacity=".1"/></radialGradient><radialGradient id="paint35_radial_237_345" cx="0" cy="0" r="1" gradientUnits="userSpaceOnUse" gradientTransform="matrix(1.16335 9.51177 -11.67024 1.42734 22.183 3.458)"><stop stop-color="#fff"/><stop offset=".115" stop-color="#fff" stop-opacity=".919"/><stop offset="1" stop-color="#fff" stop-opacity=".3"/></radialGradient><radialGradient id="paint36_radial_237_345" cx="0" cy="0" r="1" gradientUnits="userSpaceOnUse" gradientTransform="matrix(1.17595 13.56171 -11.8833 1.03042 16.026 22.838)"><stop stop-color="#fff"/><stop offset=".115" stop-color="#fff" stop-opacity=".896"/><stop offset="1" stop-color="#fff" stop-opacity=".1"/></radialGradient><radialGradient id="paint37_radial_237_345" cx="0" cy="0" r="1" gradientUnits="userSpaceOnUse" gradientTransform="matrix(-19.10904 -7.38353 7.3835 -19.10895 9.5 10.5)"><stop offset=".43" stop-color="#657765" stop-opacity="0"/><stop offset=".822" stop-color="#272527" stop-opacity=".7"/><stop offset="1" stop-color="#151D18" stop-opacity=".7"/></radialGradient></defs></svg>