<svg width="25" height="33" fill="none" xmlns="http://www.w3.org/2000/svg"><path d="M19.428 11.454c.04-.857.976-1.48.82-.429-.157 1.053-.196 3.313-1.249 2.923-1.053-.428.43-2.494.43-2.494zm-14.311 0c-.039-.857-.975-1.48-.82-.429.157 1.053.196 3.313 1.25 2.923 1.092-.428-.43-2.494-.43-2.494zm7.175 15.471c2.13 0 4.037-.857 5.233-2.182-.748-.273-1.346-1.13-1.346-1.948v-2.26c0-.858-.672-1.56-1.495-1.56H9.862c-.822 0-1.495.702-1.495 1.56v2.26c0 .818-.598 1.675-1.308 1.948 1.196 1.325 3.102 2.182 5.233 2.182z" fill="#E59354"/><path d="M12.245 21.82c3.836 0 6.945-4.135 6.945-9.236 0-5.1-3.109-9.235-6.945-9.235-3.835 0-6.944 4.135-6.944 9.235 0 5.101 3.109 9.236 6.944 9.236z" fill="#EAAB7A"/><path d="M19.19 12.584s-.274-2.533-.742-4.17c-.429-.429-2.107-.701-3.98-.701-.936 0-3.277 1.48-4.213 1.48.39-.467.43-.818.43-1.13-.664.663-2.303 1.87-3.239 1.87.39-.389.585-1.87.039-1.87-1.053 1.053-2.146 4.52-2.146 4.52S4.754 10.13 4.754 9c0-1.014 0-7.833 7.49-7.716 7.492.117 7.492 6.624 7.492 7.716 0 1.13-.547 3.585-.547 3.585z" fill="url(#paint0_radial_238_306)"/><path d="M7.758 8.258c.312-.545.43-1.753-.078-1.753-1.053 1.052-2.146 4.52-2.146 4.52S4.95 8.57 4.95 7.44v-.545c-.195.974-.195 1.792-.195 2.104 0 1.13.585 3.585.585 3.585s1.132-3.507 2.146-4.52c.117 0 .195.078.273.194zm11.626 2.766s-.273-2.533-.741-4.17c-.43-.428-2.107-.7-3.98-.7-.936 0-3.277 1.48-4.213 1.48.39-.467.429-.818.429-1.13-.625.624-2.107 1.715-3.083 1.832.117.467-.039 1.286-.35 1.558.936 0 2.574-1.208 3.238-1.87 0 .312-.04.662-.43 1.13.976 0 3.278-1.48 4.214-1.48 1.873 0 3.55.272 3.98.7.468 1.676.74 4.21.74 4.21s.508-2.261.547-3.43c-.156.974-.351 1.87-.351 1.87zM6.9 11.803c.156-.233.313-.39.508-.506.195-.156.39-.234.624-.312a2.21 2.21 0 01.702-.117c.234 0 .507.04.741.156v.039c-.429 0-.897.117-1.287.273a7.243 7.243 0 00-1.288.467z" fill="#9F4F00"/><path d="M17.59 11.803c-.39-.194-.82-.35-1.249-.506-.429-.156-.858-.273-1.287-.273.234-.117.468-.156.741-.156.234 0 .468.04.702.117.234.078.43.195.625.312.156.117.35.273.468.506z" fill="#9F4F00"/><path d="M12.245 18.82c1.054 0 1.6-.702 2.42-1.598 0 0-1.25.39-2.38.39-1.054 0-2.459-.39-2.459-.39.858.935 1.366 1.597 2.42 1.597z" fill="#fff"/><path d="M12.245 18.079c-.624 0-1.092-.273-1.521-.663-.508-.116-.898-.194-.898-.194.858.935 1.366 1.597 2.42 1.597 1.053 0 1.599-.701 2.418-1.597 0 0-.39.117-.936.233-.43.39-.859.624-1.483.624z" fill="#CA1412"/><path d="M18.956 7.479c.234.272.35.545.39.857.078.312.078.623 0 .935-.195-.273-.273-.584-.351-.857-.04-.312-.078-.585-.04-.935zm-1.64-3.234c.39.234.703.624.937 1.013.234.39.39.819.429 1.325-.312-.35-.507-.74-.741-1.13-.234-.429-.468-.78-.625-1.208zm-2.301-1.793c.35.04.663.156.975.35.273.196.546.43.702.78a3.263 3.263 0 01-.897-.467c-.273-.195-.546-.351-.78-.663z" fill="#fff"/><path d="M9.006 13.13c0 .311-.195.545-.43.545-.233 0-.429-.234-.429-.545 0-.312.196-.546.43-.546.234 0 .429.273.429.546zm7.336 0c0 .311-.195.545-.43.545-.234 0-.429-.234-.429-.545 0-.312.195-.546.43-.546.234 0 .429.273.429.546z" fill="#000"/><path d="M17.98 15c.078.39-.39.78-.975.897-.624.117-1.17-.117-1.21-.507-.077-.39.39-.779.976-.896.585-.117 1.131.117 1.21.507zM6.705 15c-.078.39.39.78.975.897.624.117 1.17-.117 1.21-.507.078-.39-.39-.779-.976-.896-.585-.117-1.131.117-1.21.507z" fill="#E38378"/><path d="M23.785 22.951c-.448-.312-2.449-.818-3.51-1.091-1.061-.312-1.918-.546-1.96-.546 0 0-3.469 2.144-5.796 2.144-2.326 0-5.755-2.183-5.796-2.183-.04 0-.939.273-2 .546-1.061.312-3.062.78-3.51 1.091-.327.312-.694 4.053 2.163 6.625.816.74 1.837 1.247 2.939 1.559 1.306.39 3.592.857 6.408.857 2 0 3.674-.234 4.899-.468 1.837-.39 3.51-1.325 4.612-2.767 2.123-2.727 1.878-5.494 1.551-5.767z" fill="#141413"/><path d="M8.193 20.262l-2.816 1.48 4.66 10.068a25.364 25.364 0 004.77.059l4.408-10.555-2.898-1.13-4 2.922-4.124-2.845z" fill="#fff"/><path d="M6.11 21.235l4.286 4.52 1.919-3.156-1.796 2.494-4.409-3.858z" fill="#A6A1A2"/><path d="M16.43 31.688l3.477-3.012-.857-2.622 4.163-3.123-4.694-1.928c.092.203-2.52 7.35-3.82 10.875a26.29 26.29 0 001.731-.19zm-6.185.145c-1.294-3.54-3.87-10.628-3.808-10.83l-4.776 1.85 4.286 3.2-.857 2.623 3.338 2.912c.552.096 1.16.181 1.817.245z" fill="#3A3B39"/><path d="M12.234 22.679c-.04.078 1.551 2.766 1.755 2.844.204.078 4.164-4.52 4.164-4.52l-3.919 4.91-2-3.234z" fill="#A6A1A2"/><path d="M12.928 23.965l2.532.933v-3.079l-2.517 1.34c-.115-.146-.36-.25-.627-.25-.266 0-.511.103-.626.249l-2.516-1.339v3.079L11.74 24c.127.117.344.195.576.195.256 0 .492-.094.612-.23z" fill="#1D1D1D"/><path d="M18.682 22.639c.694.039 1.388.155 2.04.311.654.156 1.307.351 1.96.624-.694 0-1.388-.117-2.041-.273a9.182 9.182 0 01-.98-.273c-.367-.116-.694-.233-.98-.39z" fill="#fff"/><path d="M18.044 30.317c-3.586 0-6.495-.61-8.168-1.104-1.395-.38-2.67-1.027-3.746-1.978-1.673-1.483-2.47-3.31-2.829-4.869-.717.19-1.315.419-1.554.57-.279.267-.677 3.919 2.112 6.43.797.722 1.793 1.217 2.869 1.521 1.275.38 3.506.837 6.256.837 1.952 0 3.586-.228 4.781-.457a8.208 8.208 0 002.55-.988c-.717.038-1.474.038-2.27.038z" fill="url(#paint1_linear_238_306)"/><defs><radialGradient id="paint0_radial_238_306" cx="0" cy="0" r="1" gradientUnits="userSpaceOnUse" gradientTransform="matrix(22.74272 -7.8095 5.51214 16.05237 -3.268 3.344)"><stop stop-color="#ED8409"/><stop offset="1" stop-color="#D16603"/></radialGradient><linearGradient id="paint1_linear_238_306" x1="18.422" y1="17.486" x2="17.747" y2="28.867" gradientUnits="userSpaceOnUse"><stop stop-color="#fff"/><stop offset="1" stop-color="#fff" stop-opacity="0"/></linearGradient></defs></svg>