<svg width="27" height="28" fill="none" xmlns="http://www.w3.org/2000/svg"><path d="M1.58 20.375c.36.67.772 1.287 1.183 1.852a13.591 13.591 0 006.426 4.579c2.777.926 5.81.926 8.586 0 .72-.257 1.388-.515 2.056-.875a15.551 15.551 0 001.697-1.08 13.584 13.584 0 005.038-14.301c-.257-1.029-.668-2.006-1.13-2.932a16.317 16.317 0 00-1.183-1.852c-1.8-2.315-4.267-4.013-7.095-4.784-2.673-.72-5.45-.618-7.917.205-.72.258-1.388.515-2.057.875-.925.514-1.799 1.08-2.57 1.8C2.249 5.972.707 8.75.193 11.785c-.412 2.315-.155 4.63.617 6.79.205.617.462 1.235.77 1.8z" fill="url(#paint0_radial_237_344)"/><path fill-rule="evenodd" clip-rule="evenodd" d="M10.82.768c1.071 1.18 2.588 2.248 4.436 2.942 2.21.823 4.627 1.028 6.53.565.296-.071.58-.159.849-.262A13.33 13.33 0 0017.158.982 13.896 13.896 0 0010.82.768zM.21 16.335a12.866 12.866 0 01-.017-4.55 13.55 13.55 0 013.009-6.47c.047.147.089.298.127.453.154.514.205 1.08.257 1.646.102 1.543-.155 3.19-.72 4.732-.641 1.71-1.566 3.136-2.657 4.19zM15.436 27.36a13.618 13.618 0 01-6.248-.554A13.467 13.467 0 014.7 24.26c.04-.01.08-.018.12-.026 1.697-.412 3.753-.36 5.81.308 1.877.598 3.578 1.586 4.807 2.817zM26.83 11.824a13.565 13.565 0 01-3.396 11.306 7.128 7.128 0 01-.108-.386c-.41-1.698-.36-3.755.309-5.865.514-1.543 1.337-3.035 2.313-4.166.272-.311.574-.622.882-.89z" fill="url(#paint1_radial_237_344)"/><path fill-rule="evenodd" clip-rule="evenodd" d="M26.959 15.02a13.61 13.61 0 01-1.986 6.079 2.303 2.303 0 01.103-1.136l1.234-3.909c.146-.439.37-.786.649-1.034zM20.585 2.47c-.479.278-1.098.333-1.781.106L14.897 1.34c-.546-.182-.952-.475-1.202-.839 1.151.014 2.317.172 3.463.48 1.217.333 2.368.836 3.427 1.487zm-8.142 24.992a13.541 13.541 0 01-4.047-.948c.446-.297 1.065-.381 1.719-.173l1.234.412c.472.157.839.405 1.094.709zm-5.148-1.454c-.33-.17-.651-.354-.963-.549a2.59 2.59 0 011.11.059l-.147.49zM.017 13.306c.027-.506.085-1.014.175-1.522a13.43 13.43 0 01.764-2.722c.37.45.494 1.128.266 1.846L.81 12.144c-.172.516-.452.906-.794 1.163zM1.41 8.044c.195-.39.408-.773.64-1.145.118.394.12.852-.006 1.336l-.634-.19z" fill="#232323"/><path d="M7.338 17.135c.72 1.44 1.954 2.674 3.599 3.292 1.748.72 3.753.617 5.449-.206a6.67 6.67 0 003.341-3.652 6.766 6.766 0 00.258-3.91c-.103-.514-.309-.977-.515-1.44a6.713 6.713 0 00-4.164-3.498c-1.645-.514-3.392-.308-4.832.412-.463.206-.874.514-1.285.823-1.028.823-1.8 2.006-2.21 3.24-.566 1.698-.412 3.447.36 4.939z" fill="url(#paint2_radial_237_344)"/><path d="M15.205 15.384l-.411 1.235c-.411 1.235-1.49 1.749-2.622 1.389-1.13-.36-1.696-1.39-1.285-2.624l1.234-3.909c.411-1.235 1.44-1.749 2.57-1.337 1.08.36 1.594 1.337 1.285 2.572l-1.08-.36c.155-.618-.05-1.03-.565-1.184-.514-.154-.976.052-1.182.67l-.36 1.182c.308-.154.72-.206 1.182-.051 1.08.257 1.594 1.286 1.234 2.417zm-1.08-.308c.206-.617-.05-1.08-.565-1.286-.514-.155-.977.103-1.182.72l-.36 1.183c-.206.669.051 1.132.565 1.286.514.154.977-.051 1.183-.72l.36-1.183z" fill="#232323"/><path opacity=".7" d="M19.84 25.91a13.427 13.427 0 005.808-6.025c.004-.01.01-.02.013-.03.315-.653.58-1.342.791-2.062a13.426 13.426 0 00.088-7.28 13.535 13.535 0 00-2.582-5.046 13.431 13.431 0 00-6.663-4.42 13.41 13.41 0 00-2.89-.514 13.448 13.448 0 00-7.278 1.57c-.059.03-.112.061-.166.093a13.409 13.409 0 00-5.34 5.397c-.094.17-.182.345-.267.517a13.56 13.56 0 00-1.33 6.69 13.542 13.542 0 004.373 9.168 13.394 13.394 0 004.74 2.803h.002a13.432 13.432 0 0010.7-.861z" fill="url(#paint3_radial_237_344)"/><path d="M17.395 2.723C3.801-3.67-3.983 18.17 5.187 21.955c1.417-7.251 5.452-14.953 12.208-19.232z" fill="url(#paint4_linear_237_344)"/><defs><radialGradient id="paint0_radial_237_344" cx="0" cy="0" r="1" gradientUnits="userSpaceOnUse" gradientTransform="rotate(79.793 .982 9.049) scale(21.3595 21.3633)"><stop stop-color="#FEFEFF"/><stop offset=".362" stop-color="#72D433"/><stop offset=".826" stop-color="#458B17"/></radialGradient><radialGradient id="paint1_radial_237_344" cx="0" cy="0" r="1" gradientUnits="userSpaceOnUse" gradientTransform="matrix(0 13.5001 -13.501 0 13.499 14)"><stop stop-color="#fff"/><stop offset="1" stop-color="#D3D3D3"/></radialGradient><radialGradient id="paint2_radial_237_344" cx="0" cy="0" r="1" gradientUnits="userSpaceOnUse" gradientTransform="rotate(81.864 -.37 12.431) scale(9.97101 10.0082)"><stop stop-color="#fff"/><stop offset="1" stop-color="#D3D3D3"/></radialGradient><radialGradient id="paint3_radial_237_344" cx="0" cy="0" r="1" gradientUnits="userSpaceOnUse" gradientTransform="matrix(-19.10932 -7.38364 7.38353 -19.10904 9 10.5)"><stop offset=".43" stop-color="#657765" stop-opacity="0"/><stop offset=".822" stop-color="#272527" stop-opacity=".7"/><stop offset="1" stop-color="#151D18" stop-opacity=".7"/></radialGradient><linearGradient id="paint4_linear_237_344" x1="2.897" y1="6.056" x2="11.311" y2="12.335" gradientUnits="userSpaceOnUse"><stop stop-color="#fff"/><stop offset=".898" stop-color="#fff" stop-opacity="0"/></linearGradient></defs></svg>