<svg width="26" height="28" fill="none" xmlns="http://www.w3.org/2000/svg"><path d="M25.499 13.958c-.123-6.934-4.43-12.568-9.89-13.196A92.015 92.015 0 0011.214.5l.06 13.552V27.5a42.9 42.9 0 004.527-.235c5.476-.783 9.758-6.479 9.698-13.307z" fill="url(#paint0_linear_237_328)"/><path d="M25.068 10.459c.26 1.113.41 2.286.431 3.498a15.74 15.74 0 01-.352 3.468H21.93V10.46h3.139zm-.755 9.613c-.963 2.283-2.46 4.19-4.287 5.48h-2.829v-5.48h7.116zM19.85 2.378c1.856 1.272 3.384 3.196 4.382 5.527h-7.035V2.378h2.652z" fill="#838383"/><path d="M22.821 13.48C22.848 6.33 18.228.51 12.53.5 6.829.491 2.313 6.363 2.286 13.513 2.32 20.77 7 26.693 12.64 26.6c5.639-.096 10.216-5.863 10.182-13.119z" fill="#fff"/><path d="M22.817 13.94C22.66 6.467 17.718.492 11.631.5 5.544.508.346 6.587.503 14.06c.159 7.473 5.1 13.449 11.187 13.44 6.193-.069 11.286-6.087 11.127-13.56z" fill="url(#paint1_linear_237_328)"/><path d="M5.91 22.977c.705.722.73 1.86.084 2.612a11.24 11.24 0 01-1.451-1.26 13.156 13.156 0 01-1.94-2.564 14.423 14.423 0 01-.858-1.724 1.91 1.91 0 012.511.748 11.19 11.19 0 001.654 2.188z" fill="url(#paint2_linear_237_328)"/><path d="M19.212 20.755a1.91 1.91 0 012.505-.754 14.066 14.066 0 01-.85 1.729 12.834 12.834 0 01-1.964 2.575 11.867 11.867 0 01-1.458 1.25 1.937 1.937 0 01.1-2.61 10.913 10.913 0 001.667-2.19z" fill="url(#paint3_linear_237_328)"/><path d="M20.804 12.551a1.927 1.927 0 011.572-2.122 16.349 16.349 0 01.332 1.9c.06.527.098 1.065.11 1.61a15.797 15.797 0 01-.158 2.585c-.047.321-.103.638-.17.95a1.926 1.926 0 01-1.632-2.066c.038-.467.053-.943.043-1.427-.01-.485-.043-.962-.097-1.43z" fill="url(#paint4_linear_237_328)"/><path d="M17.41 5.023a1.937 1.937 0 01-.083-2.612 11.213 11.213 0 011.451 1.26c.731.749 1.384 1.61 1.94 2.564a14.43 14.43 0 01.858 1.724 1.91 1.91 0 01-2.511-.748 11.226 11.226 0 00-1.654-2.188z" fill="url(#paint5_linear_237_328)"/><path d="M10.359 2.543a1.917 1.917 0 01-2.18-1.37 9.7 9.7 0 011.843-.529 9.173 9.173 0 014.14.207c.31.087.613.19.911.31A1.917 1.917 0 0112.9 2.536a7.297 7.297 0 00-2.541.006z" fill="url(#paint6_linear_237_328)"/><path d="M4.123 7.254a1.91 1.91 0 01-2.506.75 14.211 14.211 0 01.853-1.726A13.023 13.023 0 014.43 3.7a11.982 11.982 0 011.455-1.256 1.938 1.938 0 01-.093 2.614 11.096 11.096 0 00-1.669 2.195z" fill="url(#paint7_linear_237_328)"/><path d="M14.232 27.129a9.65 9.65 0 00.91-.31 1.917 1.917 0 00-2.184-1.37 7.69 7.69 0 01-1.28.122 7.29 7.29 0 01-1.258-.108 1.917 1.917 0 00-2.173 1.377 9.516 9.516 0 001.846.523 9.199 9.199 0 001.597.137 9.6 9.6 0 002.542-.371z" fill="url(#paint8_linear_237_328)"/><path d="M2.518 15.4a1.927 1.927 0 01-1.572 2.123 16.434 16.434 0 01-.332-1.9 17.166 17.166 0 01-.11-1.61 15.811 15.811 0 01.158-2.585c.047-.322.103-.638.17-.95a1.926 1.926 0 011.632 2.066c-.039.467-.053.943-.043 1.427.01.485.043.962.097 1.43z" fill="url(#paint9_linear_237_328)"/><path d="M4.963 13.896c-.007-4.393 2.875-7.98 6.366-8.007 3.49-.027 6.32 3.633 6.326 8.026.007 4.392-2.875 7.98-6.366 8.006-3.49.027-6.366-3.553-6.326-8.025z" fill="#A3A2A5"/><path d="M6.102 13.95c-.007-4.048 2.617-7.354 5.794-7.379 3.177-.024 5.753 3.348 5.76 7.396.006 4.048-2.618 7.353-5.795 7.378-3.177.025-5.796-3.274-5.76-7.395z" fill="url(#paint10_linear_237_328)"/><path fill-rule="evenodd" clip-rule="evenodd" d="M11.698 6.969c-5.322.533-6.122 8.297-3.424 11.56 1.843-2.257 4.634-6.445 3.424-11.56z" fill="url(#paint11_radial_237_328)"/><path d="M14.683 2.084C3.347-4.65-3.143 18.354 4.503 22.34 5.685 14.703 9.05 6.59 14.683 2.084z" fill="url(#paint12_linear_237_328)"/><defs><linearGradient id="paint0_linear_237_328" x1="18.386" y1="27.444" x2="18.269" y2=".492" gradientUnits="userSpaceOnUse"><stop stop-color="#773600"/><stop offset=".539" stop-color="#8F4600"/><stop offset="1" stop-color="#7E3A00"/></linearGradient><linearGradient id="paint1_linear_237_328" x1="24.093" y1="19.977" x2="1.29" y2="4.499" gradientUnits="userSpaceOnUse"><stop offset=".157" stop-color="#C45800"/><stop offset=".688" stop-color="#FC940D"/></linearGradient><linearGradient id="paint2_linear_237_328" x1="11.661" y1=".5" x2="11.661" y2="27.5" gradientUnits="userSpaceOnUse"><stop stop-color="#fff"/><stop offset=".74" stop-color="#C8C8C8"/></linearGradient><linearGradient id="paint3_linear_237_328" x1="11.661" y1=".5" x2="11.661" y2="27.5" gradientUnits="userSpaceOnUse"><stop stop-color="#fff"/><stop offset=".74" stop-color="#C8C8C8"/></linearGradient><linearGradient id="paint4_linear_237_328" x1="11.661" y1=".5" x2="11.661" y2="27.5" gradientUnits="userSpaceOnUse"><stop stop-color="#fff"/><stop offset=".74" stop-color="#C8C8C8"/></linearGradient><linearGradient id="paint5_linear_237_328" x1="11.661" y1=".5" x2="11.661" y2="27.5" gradientUnits="userSpaceOnUse"><stop stop-color="#fff"/><stop offset=".74" stop-color="#C8C8C8"/></linearGradient><linearGradient id="paint6_linear_237_328" x1="11.661" y1=".5" x2="11.661" y2="27.5" gradientUnits="userSpaceOnUse"><stop stop-color="#fff"/><stop offset=".74" stop-color="#C8C8C8"/></linearGradient><linearGradient id="paint7_linear_237_328" x1="11.661" y1=".5" x2="11.661" y2="27.5" gradientUnits="userSpaceOnUse"><stop stop-color="#fff"/><stop offset=".74" stop-color="#C8C8C8"/></linearGradient><linearGradient id="paint8_linear_237_328" x1="11.661" y1=".5" x2="11.661" y2="27.5" gradientUnits="userSpaceOnUse"><stop stop-color="#fff"/><stop offset=".74" stop-color="#C8C8C8"/></linearGradient><linearGradient id="paint9_linear_237_328" x1="11.661" y1=".5" x2="11.661" y2="27.5" gradientUnits="userSpaceOnUse"><stop stop-color="#fff"/><stop offset=".74" stop-color="#C8C8C8"/></linearGradient><linearGradient id="paint10_linear_237_328" x1="6.772" y1="9.438" x2="20.065" y2="25.29" gradientUnits="userSpaceOnUse"><stop stop-color="#fff"/><stop offset=".847" stop-color="#A5A5A5"/></linearGradient><linearGradient id="paint12_linear_237_328" x1="2.593" y1="5.594" x2="10.691" y2="10.379" gradientUnits="userSpaceOnUse"><stop stop-color="#fff"/><stop offset=".898" stop-color="#fff" stop-opacity="0"/></linearGradient><radialGradient id="paint11_radial_237_328" cx="0" cy="0" r="1" gradientUnits="userSpaceOnUse" gradientTransform="matrix(12.6042 4.73256 -4.77457 12.71608 2.038 8.6)"><stop stop-color="#fff"/><stop offset=".938" stop-color="#fff" stop-opacity="0"/></radialGradient></defs></svg>