<svg width="25" height="28" fill="none" xmlns="http://www.w3.org/2000/svg"><path d="M25.002 13.764c-.123-6.933-4.43-12.568-9.89-13.196a92.015 92.015 0 00-4.395-.261l.06 13.551v13.448a42.9 42.9 0 004.527-.235c5.476-.784 9.758-6.479 9.698-13.307z" fill="url(#paint0_linear_237_325)"/><path d="M22.319 13.287C22.345 6.136 17.725.316 12.026.306 6.326.297 1.81 6.169 1.783 13.32c.034 7.255 4.714 13.18 10.353 13.085 5.639-.096 10.216-5.863 10.183-13.119z" fill="#FCCE3A"/><path d="M22.318 13.746C22.16 6.274 17.218.299 11.13.306 5.044.316-.154 6.394.003 13.867c.159 7.473 5.1 13.449 11.187 13.44 6.193-.069 11.286-6.087 11.128-13.56z" fill="url(#paint1_radial_237_325)"/><path d="M20.764 13.83c.01-6.873-4.517-12.487-10-12.529C5.282 1.259.837 6.986.825 13.859c-.01 6.873 4.517 12.487 10 12.528 5.484.042 10.002-5.56 9.939-12.558z" fill="url(#paint2_radial_237_325)"/><path opacity=".5" d="M13.829 2.727c-5.281.01-9.418 5.394-9.45 11.944-.075 5.905 3.276 10.685 7.56 11.581-.165.094-.447.114-.713.123-.145.004-.285.005-.4.012-5.41.083-9.938-5.53-10-12.529.011-6.872 4.456-12.6 10.065-12.63 1.846-.052 3.605.615 5.133 1.75l-2.195-.25z" fill="url(#paint3_radial_237_325)"/><path d="M11.294 1.333c-4.963.832-8.644 6.122-8.623 12.475.02 6.352 3.743 11.757 8.536 12.36.11.03.197.02.287.015a.704.704 0 01.243.017c-.09.052-.215.041-.326.056a.35.35 0 00-.13.038c-.127.073-.254.146-.456.094-5.409.082-9.937-5.53-10-12.529.012-6.873 4.457-12.6 9.939-12.558a.537.537 0 01.228-.047c.081-.005.164-.01.228-.047.074.126.202.052.53.031-.063.037-.146.042-.228.048-.082.005-.164.01-.228.047z" fill="url(#paint4_linear_237_325)"/><path d="M18.684 13.832c.008-5.63-3.312-10.227-7.333-10.262-4.02-.034-7.28 4.657-7.288 10.286-.008 5.63 3.312 10.228 7.333 10.262 4.021.034 7.334-4.554 7.288-10.286z" fill="#fff"/><path d="M18.19 13.845s-.029-1.096-.099-1.623l-6.763 1.623h.015l6.763 1.624c.03-.285.099-2.196.083-1.624z" fill="#C71513"/><path d="M17.825 10.618s-.28-1.015-.449-1.502l-6.033 4.709v.02l6.763-1.623c-.056-.548-.28-1.583-.28-1.583v-.021z" fill="#1E1A1B"/><path fill-rule="evenodd" clip-rule="evenodd" d="M15.987 6.54a8.519 8.519 0 00-.898-1.016l-3.728 8.28-.018.02.014-.01-.014.031.06-.067 5.973-4.662a13.883 13.883 0 00-.617-1.38l-.007.008a9.865 9.865 0 00-.765-1.184v-.02z" fill="#C71513"/><path d="M11.903 3.962c.393.04.758.122 1.123.264h.015c.364.121.73.304 1.066.527l-.002.008c.346.222.679.483.984.784l-3.746 8.3h-.015l.575-9.883z" fill="#1E1A1B"/><path fill-rule="evenodd" clip-rule="evenodd" d="M11.881 3.958l.037.003-.575 9.884-.002-.027v-.002l.002.029-.01-.056-2.754-9.036a7.054 7.054 0 011.066-.527 5.406 5.406 0 011.122-.264l.037-.004c.183-.02.355-.037.539-.037.184 0 .356.018.538.037z" fill="#C71513"/><path d="M7.582 5.545c.323-.304.645-.568.996-.791l2.764 9.092-.048-.074.034.054-.02-.023.019.042-.047-.074-5.368-6.034c.239-.426.491-.832.772-1.197l.006.01a7.19 7.19 0 01.89-1.005h.002z" fill="#468E17"/><path d="M5.316 9.12c.18-.48.389-.942.61-1.363l5.389 6.056.014.011-.008-.004.022.025-.048-.038-6.448-3.189c.126-.507.28-1.015.463-1.502l.006.005z" fill="#C71513"/><path d="M11.343 13.845l6.033 4.73c.183-.488.337-.975.45-1.502.125-.508.21-1.037.28-1.584l-6.763-1.644z" fill="#1E1A1B"/><path d="M15.987 21.13c-.28.386-.575.71-.898 1.015l-3.713-8.248-.047-.052.026.02-.012-.02.02.023-.02-.044.04.062 5.98 4.687c-.182.464-.377.927-.613 1.351l.009.01a9.896 9.896 0 01-.772 1.197z" fill="#C71513"/><path fill-rule="evenodd" clip-rule="evenodd" d="M14.093 22.937a5.551 5.551 0 01-1.066.527 5.405 5.405 0 01-1.123.265l-.561-9.883v.001l3.746 8.3a7.172 7.172 0 01-.996.77v.02z" fill="#1E1A1B"/><path d="M8.58 22.916c.336.223.7.406 1.065.528l.014.021c.36.14.721.221 1.109.263.182.02.378.04.56.04.197 0 .38-.02.562-.04l-.554-9.759.007-.123-.01.06-.004-.061-.007.12.007-.14-2.75 9.091z" fill="#C71513"/><path d="M4.86 17.051a11.323 11.323 0 01-.28-1.583l6.762-1.644-.014.022.014-.001-5.416 6.088a11.713 11.713 0 01-.617-1.36l-.014.001a15.78 15.78 0 01-.45-1.502l.015-.021z" fill="#C71513"/><path d="M4.565 12.201c.07-.548.155-1.075.281-1.583l6.482 3.207h-.068.083l-.042.01.042.01h-.083L4.58 15.47a12.39 12.39 0 01-.099-1.623c0-.549.043-1.097.099-1.624l-.015-.02z" fill="#1E1A1B"/><path fill-rule="evenodd" clip-rule="evenodd" d="M6.698 21.131a9.902 9.902 0 01-.771-1.197l5.389-6.078.013-.03-.007.022.02-.023-.025.04-.01.037.036-.057-.058.128-2.706 8.944a5.008 5.008 0 01-.996-.771l.004-.01a8.55 8.55 0 01-.889-1.005z" fill="#1E1A1B"/><path d="M14.431 13.838c.004-3.066-1.648-5.57-3.648-5.589-2-.019-3.622 2.536-3.627 5.602-.004 3.065 1.648 5.57 3.65 5.588 2 .019 3.648-2.48 3.625-5.601z" fill="url(#paint5_radial_237_325)"/><path transform="rotate(41.235 14.984 8.249)" fill="url(#paint6_linear_237_325)" d="M14.984 8.249h1.278v13.255h-1.278z"/><path transform="rotate(-48.765 5.645 10.264)" fill="url(#paint7_linear_237_325)" d="M5.645 10.264h1.278v13.367H5.645z"/><circle cx="6.274" cy="9.951" r=".965" fill="url(#paint8_radial_237_325)"/><circle cx="6.836" cy="18.509" r=".965" fill="url(#paint9_radial_237_325)"/><circle cx="15.414" cy="8.701" r=".965" fill="url(#paint10_radial_237_325)"/><circle cx="15.574" cy="18.109" r=".965" fill="url(#paint11_radial_237_325)"/><path d="M12.293 13.82c.003-1.51-.812-2.744-1.798-2.754-.986-.009-1.785 1.25-1.787 2.761-.002 1.511.812 2.745 1.798 2.754.986.01 1.799-1.222 1.787-2.76z" fill="url(#paint12_radial_237_325)"/><path d="M14.025 4.856C6.038-.054 1.465 16.72 6.852 19.627c.832-5.57 3.203-11.485 7.173-14.77z" fill="url(#paint13_linear_237_325)"/><defs><radialGradient id="paint1_radial_237_325" cx="0" cy="0" r="1" gradientUnits="userSpaceOnUse" gradientTransform="matrix(20.57606 -11.86461 11.79782 20.46024 .764 5.744)"><stop stop-color="#FCF80D"/><stop offset="1" stop-color="#FC9C0D"/></radialGradient><radialGradient id="paint2_radial_237_325" cx="0" cy="0" r="1" gradientUnits="userSpaceOnUse" gradientTransform="matrix(30.26823 -17.33386 17.17683 29.994 -9.851 5.88)"><stop stop-color="#FCF80D"/><stop offset=".785" stop-color="#ED8409"/><stop offset="1" stop-color="#D16603"/></radialGradient><radialGradient id="paint3_radial_237_325" cx="0" cy="0" r="1" gradientUnits="userSpaceOnUse" gradientTransform="rotate(-29.799 33.475 -25.594) scale(20.1513 19.9687)"><stop offset=".515" stop-color="#fff"/><stop offset=".685" stop-color="#FFE2C3"/><stop offset="1" stop-color="#FFA84B"/></radialGradient><radialGradient id="paint5_radial_237_325" cx="0" cy="0" r="1" gradientUnits="userSpaceOnUse" gradientTransform="matrix(11.04398 -7.73201 8.3474 11.92297 3.26 10.291)"><stop stop-color="#FCF80D"/><stop offset="1" stop-color="#F78A0C"/></radialGradient><radialGradient id="paint8_radial_237_325" cx="0" cy="0" r="1" gradientUnits="userSpaceOnUse" gradientTransform="matrix(1.56068 .27753 -.23316 1.31116 5.678 9.644)"><stop stop-color="#F9BD0C"/><stop offset=".698" stop-color="#E86F0C"/><stop offset="1" stop-color="#D06303"/></radialGradient><radialGradient id="paint9_radial_237_325" cx="0" cy="0" r="1" gradientUnits="userSpaceOnUse" gradientTransform="matrix(1.56068 .27753 -.23316 1.31116 6.24 18.201)"><stop stop-color="#F9BD0C"/><stop offset=".698" stop-color="#E86F0C"/><stop offset="1" stop-color="#D06303"/></radialGradient><radialGradient id="paint10_radial_237_325" cx="0" cy="0" r="1" gradientUnits="userSpaceOnUse" gradientTransform="matrix(1.56068 .27753 -.23316 1.31116 14.818 8.394)"><stop stop-color="#F9BD0C"/><stop offset=".698" stop-color="#E86F0C"/><stop offset="1" stop-color="#D06303"/></radialGradient><radialGradient id="paint11_radial_237_325" cx="0" cy="0" r="1" gradientUnits="userSpaceOnUse" gradientTransform="matrix(1.56068 .27752 -.23315 1.31116 14.978 17.801)"><stop stop-color="#F9BD0C"/><stop offset=".698" stop-color="#E86F0C"/><stop offset="1" stop-color="#D06303"/></radialGradient><radialGradient id="paint12_radial_237_325" cx="0" cy="0" r="1" gradientUnits="userSpaceOnUse" gradientTransform="matrix(2.9008 .79343 -.9841 3.59786 9.393 12.946)"><stop stop-color="#F9BD0C"/><stop offset=".698" stop-color="#E86F0C"/><stop offset="1" stop-color="#D06303"/></radialGradient><linearGradient id="paint0_linear_237_325" x1="17.889" y1="27.25" x2="17.772" y2=".299" gradientUnits="userSpaceOnUse"><stop stop-color="#C45800"/><stop offset=".688" stop-color="#FC940D"/><stop offset="1" stop-color="#E86F0C"/></linearGradient><linearGradient id="paint4_linear_237_325" x1="6.329" y1="26.451" x2="6.223" y2="1.67" gradientUnits="userSpaceOnUse"><stop stop-color="#FC940D"/><stop offset="1" stop-color="#E86F0C"/></linearGradient><linearGradient id="paint6_linear_237_325" x1="15.818" y1="20.363" x2="15.768" y2="9.089" gradientUnits="userSpaceOnUse"><stop stop-color="#EE7B0C"/><stop offset=".484" stop-color="#C35800"/><stop offset="1" stop-color="#EE7B0C"/></linearGradient><linearGradient id="paint7_linear_237_325" x1="6.479" y1="22.48" x2="6.427" y2="11.111" gradientUnits="userSpaceOnUse"><stop stop-color="#EE7B0C"/><stop offset=".484" stop-color="#C35800"/><stop offset="1" stop-color="#EE7B0C"/></linearGradient><linearGradient id="paint13_linear_237_325" x1="13.065" y1="-4.207" x2="9.461" y2="14.206" gradientUnits="userSpaceOnUse"><stop stop-color="#fff"/><stop offset="1" stop-color="#fff" stop-opacity="0"/></linearGradient></defs></svg>