<svg width="31" height="35" fill="none" xmlns="http://www.w3.org/2000/svg"><path d="M4.502 13.838s1.075-.04 2.468-.477A31.606 31.606 0 018.125 9.26a20.216 20.216 0 00-3.623 4.578z" fill="url(#paint0_linear_237_326)"/><path d="M8.125 9.26c-.477 1.354-.876 2.707-1.154 4.101.876-.279 1.91-.677 2.906-1.354.04-1.632.239-3.185.677-4.737a31.724 31.724 0 00-2.429 1.99z" fill="url(#paint1_linear_237_326)"/><path d="M10.554 7.27c-.398 1.552-.597 3.144-.677 4.737a8.934 8.934 0 002.03-1.871c.08-1.394.24-2.747.478-4.14-.517.357-1.154.756-1.831 1.273z" fill="url(#paint2_linear_237_326)"/><path d="M13.66 6.593c.04-.438.079-.876.159-1.314 0 0-.558.24-1.394.757a35.598 35.598 0 00-.478 4.14 9.69 9.69 0 001.712-3.583z" fill="url(#paint3_linear_237_326)"/><path d="M13.819 4.96c0 .08 0 .199-.04.279 0 0-6.092 2.866-9.277 8.6-.08-4.659 3.703-9.436 9.277-9.198 0 .12.04.24.04.319zm1.154-.319c5.972-3.424 13.059.16 15.846 7.644C21.343 5.04 14.854 5.2 14.854 5.2c.04-.16.08-.359.119-.558z" fill="#75D736"/><path d="M24.688 8.304a46.019 46.019 0 012.866 4.38c1.911-.08 3.265-.399 3.265-.399-2.23-1.712-4.3-3.026-6.131-3.981z" fill="url(#paint4_linear_237_326)"/><path d="M14.854 5.198c.278.598.557 1.235.796 1.872 1.154 2.03 2.707 3.344 4.42 4.22a35.835 35.835 0 00-2.668-5.733c-1.673-.398-2.549-.359-2.549-.359z" fill="url(#paint5_linear_237_326)"/><path d="M20.786 6.553a23.703 23.703 0 00-3.424-1.035 34.063 34.063 0 012.668 5.733c1.234.637 2.548.995 3.822 1.194a68.984 68.984 0 00-3.066-5.892z" fill="url(#paint6_linear_237_326)"/><path d="M24.687 8.305a34.14 34.14 0 00-3.862-1.752 76.079 76.079 0 013.106 5.932c1.313.199 2.587.239 3.662.199-.955-1.513-1.87-2.986-2.906-4.38z" fill="url(#paint7_linear_237_326)"/><path d="M9.995 21.643c-.199.398-.438.716-.637 1.075-.716 0-.716-.438-.716-.438.159-.28.358-.558.517-.916 1.632-2.867 3.583-7.605 4.42-14.77.04-.439.08-.877.159-1.315 0-.08 0-.199.04-.278 0-.12-.04-.24-.04-.319v-.239c0-.796-.398-1.553-.398-1.553.04.08.995-.437 1.274-1.95.04-.16.04-.28.04-.319.08.438.437 2.707.238 4.061-.04.2-.08.398-.12.557.28.598.558 1.235.797 1.872 2.469 6.25 6.45 13.656 6.57 15.169-.12.08-.24.119-.359.159-.12.04-.239 0-.398 0-.12-1.314-4.14-9.595-6.968-16.045-.756 7.326-2.707 12.223-4.419 15.249z" fill="url(#paint8_linear_237_326)"/><path d="M14.693.582c0 .08 0 .159-.04.318-.278 1.513-1.234 2.03-1.274 1.951-.239-.358 1.195-2.827 1.314-2.27z" fill="#32660E"/><path d="M17.755 21.976c2.086 3.619-1.76 11.955-9.127 9.855-5.894-1.68-6.361-7.91-4.385-11.34.462-.822 1.114-1.496 1.83-1.875 2.882-1.56 4.167.503 5.304 1.386.19.147.358.231.526.315.19.042.4.042.61.042 1.39-.148 3.578-1.265 5.242 1.617z" fill="url(#paint9_radial_237_326)"/><path d="M17.756 21.977a7.592 7.592 0 00-.548-.8c.193 5.304-5.655 10.485-10.412 9.162a20.955 20.955 0 01-1.62-.546c.82.883 2 1.577 3.473 1.997 7.304 2.12 11.192-6.194 9.107-9.813z" fill="url(#paint10_linear_237_326)" fill-opacity=".5"/><path d="M9.673 19.623C3.63 16.975 2.817 27.667 6.838 29.2c-.192-3.514.605-7.324 2.835-9.577z" fill="url(#paint11_linear_237_326)"/><path d="M3.427 26.657c.548 2.272 2.149 4.334 5.201 5.174 3.347.987 5.977-.278 7.68-2.215-.653-1.43-1.601-2.798-3.054-4.102-2.927-2.881-7.24-1.616-9.827 1.143z" fill="url(#paint12_linear_237_326)" fill-opacity=".5"/><path d="M15.84 21.072s-.842-.841-2.883-.335c-1.852.443-1.937-.967-2.652-.798-.737.211-.188 1.957 1.832 2.545 2.652.693 3.703-1.412 3.703-1.412z" fill="url(#paint13_linear_237_326)"/><path d="M25.447 19.229c3.346 2.216 3.617 11.033-3.617 12.39-5.788 1.085-8.863-4.07-8.637-7.868.046-.905.317-1.764.769-2.397 1.809-2.577 3.798-1.357 5.155-1.085.226.045.407.045.587.045.181-.045.362-.136.543-.226 1.13-.724 2.532-2.623 5.2-.86z" fill="url(#paint14_radial_237_326)"/><path d="M25.448 19.23c-.271-.181-.543-.317-.814-.453 2.442 4.477-.361 11.44-5.019 12.345-.542.09-1.085.18-1.628.226 1.086.407 2.397.497 3.844.226 7.19-1.312 6.963-10.129 3.617-12.345z" fill="url(#paint15_linear_237_326)"/><path d="M17.49 20.675c-6.33.316-2.442 9.857 1.673 9.45-1.674-2.939-2.623-6.556-1.674-9.45z" fill="url(#paint16_linear_237_326)"/><path d="M15.138 29.402c1.447 1.718 3.708 2.804 6.692 2.216 3.3-.588 5.019-2.803 5.652-5.2-1.176-.95-2.577-1.718-4.386-2.216-3.753-1.22-6.918 1.719-7.958 5.2z" fill="url(#paint17_linear_237_326)"/><path d="M23.412 19.273s-1.085-.361-2.622.95c-1.402 1.175-2.08 0-2.623.452-.542.497.678 1.764 2.668 1.402 2.577-.543 2.577-2.804 2.577-2.804z" fill="url(#paint18_linear_237_326)"/><defs><linearGradient id="paint0_linear_237_326" x1="3.212" y1="14.085" x2="4.239" y2="9.264" gradientUnits="userSpaceOnUse"><stop stop-color="#75D736"/><stop offset="1" stop-color="#32660E"/></linearGradient><linearGradient id="paint1_linear_237_326" x1="5.695" y1="13.689" x2="7.471" y2="7.492" gradientUnits="userSpaceOnUse"><stop stop-color="#75D736"/><stop offset="1" stop-color="#32660E"/></linearGradient><linearGradient id="paint2_linear_237_326" x1="8.984" y1="12.331" x2="11.283" y2="6.642" gradientUnits="userSpaceOnUse"><stop stop-color="#75D736"/><stop offset="1" stop-color="#32660E"/></linearGradient><linearGradient id="paint3_linear_237_326" x1="11.281" y1="10.44" x2="13.272" y2="5.928" gradientUnits="userSpaceOnUse"><stop stop-color="#75D736"/><stop offset="1" stop-color="#32660E"/></linearGradient><linearGradient id="paint4_linear_237_326" x1="29.292" y1="10.867" x2="25.374" y2="8.873" gradientUnits="userSpaceOnUse"><stop stop-color="#75D736"/><stop offset="1" stop-color="#32660E"/></linearGradient><linearGradient id="paint5_linear_237_326" x1="18.77" y1="8.763" x2="14.945" y2="7.573" gradientUnits="userSpaceOnUse"><stop stop-color="#75D736"/><stop offset="1" stop-color="#32660E"/></linearGradient><linearGradient id="paint6_linear_237_326" x1="22.236" y1="9.572" x2="17.558" y2="7.979" gradientUnits="userSpaceOnUse"><stop stop-color="#75D736"/><stop offset="1" stop-color="#32660E"/></linearGradient><linearGradient id="paint7_linear_237_326" x1="25.908" y1="10.149" x2="21.215" y2="8.271" gradientUnits="userSpaceOnUse"><stop stop-color="#75D736"/><stop offset="1" stop-color="#32660E"/></linearGradient><linearGradient id="paint8_linear_237_326" x1="15.39" y1=".621" x2="15.39" y2="22.718" gradientUnits="userSpaceOnUse"><stop stop-color="#75D736"/><stop offset="1" stop-color="#32660E"/></linearGradient><linearGradient id="paint10_linear_237_326" x1="15.585" y1="35.42" x2="12.303" y2="27.834" gradientUnits="userSpaceOnUse"><stop stop-color="#FFD466"/><stop offset="1" stop-color="#FFD466" stop-opacity="0"/></linearGradient><linearGradient id="paint11_linear_237_326" x1="7.802" y1="14.023" x2="6.642" y2="25.564" gradientUnits="userSpaceOnUse"><stop stop-color="#fff"/><stop offset="1" stop-color="#fff" stop-opacity="0"/></linearGradient><linearGradient id="paint12_linear_237_326" x1="8.731" y1="34.744" x2="10.61" y2="23.786" gradientUnits="userSpaceOnUse"><stop stop-color="#EF1211"/><stop offset="1" stop-color="#F58E45" stop-opacity="0"/></linearGradient><linearGradient id="paint13_linear_237_326" x1="13.221" y1="18.054" x2="12.66" y2="23.318" gradientUnits="userSpaceOnUse"><stop stop-color="#fff"/><stop offset="1" stop-color="#fff" stop-opacity="0"/></linearGradient><linearGradient id="paint15_linear_237_326" x1="29.352" y1="31.718" x2="23.274" y2="26.605" gradientUnits="userSpaceOnUse"><stop stop-color="#FFD466"/><stop offset="1" stop-color="#FFD466" stop-opacity="0"/></linearGradient><linearGradient id="paint16_linear_237_326" x1="13.478" y1="16.663" x2="17.433" y2="27.083" gradientUnits="userSpaceOnUse"><stop stop-color="#fff"/><stop offset="1" stop-color="#fff" stop-opacity="0"/></linearGradient><linearGradient id="paint17_linear_237_326" x1="23.168" y1="34.078" x2="20.081" y2="23.851" gradientUnits="userSpaceOnUse"><stop stop-color="#EF1211"/><stop offset="1" stop-color="#F58E45" stop-opacity="0"/></linearGradient><linearGradient id="paint18_linear_237_326" x1="19.866" y1="17.803" x2="21.642" y2="22.569" gradientUnits="userSpaceOnUse"><stop stop-color="#fff"/><stop offset="1" stop-color="#fff" stop-opacity="0"/></linearGradient><radialGradient id="paint9_radial_237_326" cx="0" cy="0" r="1" gradientUnits="userSpaceOnUse" gradientTransform="matrix(10.99997 7.49999 -5.21713 7.65178 5.498 18.5)"><stop stop-color="#EF1211"/><stop offset=".718" stop-color="#AA0807"/><stop offset="1" stop-color="#7A0100"/></radialGradient><radialGradient id="paint14_radial_237_326" cx="0" cy="0" r="1" gradientUnits="userSpaceOnUse" gradientTransform="rotate(27.897 -37.545 42.449) scale(19.2354 13.3805)"><stop stop-color="#EF1211"/><stop offset=".762" stop-color="#AA0807"/></radialGradient></defs></svg>