<svg width="28" height="28" fill="none" xmlns="http://www.w3.org/2000/svg"><path d="M13.997 27.5c7.454 0 13.497-6.043 13.497-13.497S21.451.506 13.997.506.5 6.549.5 14.003 6.543 27.5 13.997 27.5z" fill="#F76D2F"/><path d="M21.02 2.473a13.43 13.43 0 013.147 8.664c0 7.455-6.041 13.497-13.497 13.497-2.568 0-4.969-.72-7.017-1.967a13.473 13.473 0 0010.35 4.833c7.455 0 13.497-6.041 13.497-13.497a13.49 13.49 0 00-6.48-11.53z" fill="#E0602D"/><path d="M9.114 22.661c.08.177.161.351.246.522.642 1.293 1.245 2.276 1.968 3.008a5.36 5.36 0 002.007 1.292c.557.028 1.11.021 1.658-.02l.02-.19c-1.891-.499-3.364-1.91-4.431-3.79a12.779 12.779 0 01-.422-.81c1.092.073 1.883.302 2.513.604.658.314 1.151.713 1.644 1.125l.084.07.002.002c.81.68 1.677 1.407 3.198 1.705l.078.015c.54.106 1.075.211 1.55.143.134-.02.254-.038.363-.056.253-.116.502-.24.747-.37a13.548 13.548 0 001.387-.845l-.104-.165-.005.001-.062.027a4.242 4.242 0 01-.226.086 6.941 6.941 0 01-3.543.24 5.321 5.321 0 01-.472-.116c-.994-.294-1.624-.818-2.31-1.391l-.015-.012c-.569-.474-1.168-.974-1.997-1.356-.81-.373-1.829-.632-3.248-.668a17.761 17.761 0 01-.826-2.8 33.254 33.254 0 005.957.117c2.535-.19 4.883-.67 6.978-1.436 2.314-.844 4.1-1.923 5.645-3.397.006-.392-.005-.782-.033-1.17l-.115.113c-3.69 3.616-9.616 5.036-14.82 5.036-1.314 0-2.592-.082-3.79-.228a20.396 20.396 0 01-.258-3.203c0-.428.008-.851.024-1.268.093.003.184.005.274.005 2.705 0 3.974-1.565 5.334-3.24l.034-.042.009-.011c.877-1.094 1.854-2.31 3.346-3.262 2.163-1.381 3.726-1.89 4.74-2.058a4.474 4.474 0 011.115-.061 2.076 2.076 0 01.322.053l.012.004h-.003l-.003-.002-.014-.007.111-.155c-.256-.27-.525-.531-.805-.781-.685-.064-2.43.07-5.979 2.212-1.57.944-2.568 2.198-3.432 3.282l-.16.2-.003.004c-.664.827-1.25 1.556-1.96 2.083-.702.52-1.528.845-2.675.845-.07 0-.14-.002-.213-.004.163-2.37.593-4.505 1.267-6.264C10.87 3.555 13.045 1.554 15.15.735l-.028-.186a13.228 13.228 0 00-.216-.016A13.31 13.31 0 0013.84.501c-2.144.96-3.828 2.652-4.895 5.437-.706 1.846-1.156 4.067-1.327 6.51a9.837 9.837 0 01-.584-.11c-.561-.123-1.014-.364-1.367-.717-.353-.354-.614-.83-.775-1.436-.28-1.067-.222-2.515.189-3.97.182-.653.487-1.39.82-2.028.337-.646.69-1.167.963-1.41l-.123-.155c-.56.357-1.095.755-1.6 1.192-.401.62-.713 1.388-.962 2.132-.544 1.604-.529 3.215-.2 4.47.403 1.53 1.389 2.517 2.85 2.838.255.055.5.099.737.133-.018.446-.027.9-.027 1.357 0 1.039.074 2.068.217 3.067-1.803-.282-3.376-.707-4.556-1.203-.702-.292-1.307-.604-1.747-.914a2.825 2.825 0 01-.515-.448.836.836 0 01-.203-.367l-.009-.092-.203.009v.004l.004.059v-.055.059c.028.42.074.835.14 1.247.115.154.254.306.461.467.335.26.84.536 1.7.899 1.4.59 3.17 1.035 5.09 1.31.2 1.04.477 2.04.826 2.972-.565.092-.975.299-1.271.55a2.045 2.045 0 00-.605.877c-.324.911-.065 1.847.604 2.631.46.254.94.482 1.435.683l.097-.162c-.385-.317-.767-.853-1.016-1.41a3.33 3.33 0 01-.253-.804c-.041-.252-.032-.464.025-.62.166-.473.605-.779 1.353-.842z" fill="#40271B"/><path opacity=".7" d="M20.34 25.91a13.427 13.427 0 005.808-6.025c.004-.01.01-.02.013-.03.315-.653.58-1.342.791-2.062a13.426 13.426 0 00.088-7.28 13.535 13.535 0 00-2.582-5.046 13.431 13.431 0 00-6.663-4.42 13.41 13.41 0 00-2.89-.514 13.448 13.448 0 00-7.278 1.57c-.059.03-.112.061-.166.093a13.409 13.409 0 00-5.34 5.397c-.094.17-.182.345-.267.517a13.56 13.56 0 00-1.33 6.69 13.542 13.542 0 004.373 9.168 13.394 13.394 0 004.74 2.803h.002a13.432 13.432 0 0010.7-.861z" fill="url(#paint0_radial_238_308)"/><path d="M17.708 2.837C4.114-3.175-3.67 17.365 5.5 20.924c1.416-6.82 5.451-14.063 12.208-18.087z" fill="url(#paint1_linear_238_308)"/><defs><radialGradient id="paint0_radial_238_308" cx="0" cy="0" r="1" gradientUnits="userSpaceOnUse" gradientTransform="matrix(-19.10932 -7.38364 7.38353 -19.10904 9.5 10.5)"><stop offset=".43" stop-color="#657765" stop-opacity="0"/><stop offset=".822" stop-color="#272527" stop-opacity=".7"/><stop offset="1" stop-color="#151D18" stop-opacity=".7"/></radialGradient><linearGradient id="paint1_linear_238_308" x1="3.209" y1="5.971" x2="11.248" y2="12.351" gradientUnits="userSpaceOnUse"><stop stop-color="#fff"/><stop offset=".898" stop-color="#fff" stop-opacity="0"/></linearGradient></defs></svg>