<svg width="27" height="28" fill="none" xmlns="http://www.w3.org/2000/svg"><path d="M26.022 12.823C25.328 5.933 20.614.677 15.18.5c-1.475 0-2.782.03-4.356.1l1.181 13.483 1.112 13.385a42.015 42.015 0 004.445-.605c5.335-1.229 9.086-7.248 8.461-14.04z" fill="url(#paint0_linear_237_343)"/><path d="M23.17 12.754C22.604 5.626 17.485.212 11.763.678c-5.722.467-9.77 6.695-9.204 13.823.635 7.226 5.823 12.74 11.476 12.174 5.653-.565 9.77-6.694 9.135-13.92z" fill="url(#paint1_linear_237_343)"/><path d="M22.944 13.061C22.17 5.636 16.814.093 10.824.6 4.834 1.106.222 7.581.996 15.006c.774 7.425 6.13 12.968 12.12 12.462 6.088-.576 10.602-6.982 9.828-14.407z" fill="url(#paint2_radial_237_343)"/><path d="M10.732 1.31C.796 3.292.256 17.837 5.73 23.385c3.186-4.529 7.911-12.815 5.003-22.073z" fill="url(#paint3_radial_237_343)"/><path d="M18.025 14.704a1 1 0 000-1.68l-8.803-5.68a1 1 0 00-1.543.84v11.36a1 1 0 001.543.841l8.803-5.68z" fill="url(#paint4_linear_237_343)"/><path d="M13.917 2.655C3.88-3.515-1.865 17.56 4.904 21.214c1.046-6.998 4.025-14.43 9.013-18.56z" fill="url(#paint5_linear_237_343)"/><defs><linearGradient id="paint0_linear_237_343" x1="23.306" y1="23.593" x2="8.33" y2="2.336" gradientUnits="userSpaceOnUse"><stop stop-color="#7C0D0C"/><stop offset=".529" stop-color="#C41816"/><stop offset="1" stop-color="#640100"/></linearGradient><linearGradient id="paint1_linear_237_343" x1="40.338" y1="-12.171" x2="4.253" y2="21.63" gradientUnits="userSpaceOnUse"><stop stop-color="#fff"/><stop offset="1" stop-color="#fff" stop-opacity="0"/></linearGradient><linearGradient id="paint4_linear_237_343" x1="19.327" y1="13.864" x2="3.797" y2="13.864" gradientUnits="userSpaceOnUse"><stop stop-color="#fff"/><stop offset="1" stop-color="#A7A7A7"/></linearGradient><linearGradient id="paint5_linear_237_343" x1="-16.007" y1="11.373" x2="2.152" y2="22.703" gradientUnits="userSpaceOnUse"><stop stop-color="#fff"/><stop offset=".898" stop-color="#fff" stop-opacity="0"/></linearGradient><radialGradient id="paint2_radial_237_343" cx="0" cy="0" r="1" gradientUnits="userSpaceOnUse" gradientTransform="matrix(13.651 -25.35616 24.0111 12.92686 -1.327 13.938)"><stop stop-color="#F42522"/><stop offset="1" stop-color="#AB0907"/></radialGradient><radialGradient id="paint3_radial_237_343" cx="0" cy="0" r="1" gradientUnits="userSpaceOnUse" gradientTransform="matrix(23.60635 -16.53155 15.932 22.75021 -14.315 7.66)"><stop stop-color="#FFF369"/><stop offset="1" stop-color="#FFF369" stop-opacity="0"/></radialGradient></defs></svg>